<?xml version="1.0" standalone="no"?>
<!DOCTYPE svg PUBLIC "-//W3C//DTD SVG 20010904//EN"
 "http://www.w3.org/TR/2001/REC-SVG-20010904/DTD/svg10.dtd">
<svg version="1.0" xmlns="http://www.w3.org/2000/svg"
 width="544.000000pt" height="544.000000pt" viewBox="0 0 544.000000 544.000000"
 preserveAspectRatio="xMidYMid meet">

<g transform="translate(0.000000,544.000000) scale(0.100000,-0.100000)"
fill="#000000" stroke="none">
<path d="M2525 5273 c-514 -42 -1012 -241 -1415 -566 -129 -104 -331 -311
-426 -438 -137 -181 -256 -391 -337 -591 -81 -200 -71 -266 48 -326 47 -23
587 -169 657 -177 49 -6 106 11 142 43 10 9 45 72 77 139 103 218 208 365 371
518 275 259 629 407 1006 422 97 4 191 1 260 -7 178 -20 412 -92 545 -167 33
-18 61 -33 63 -33 3 0 42 -24 87 -54 339 -224 576 -570 673 -986 32 -135 43
-375 24 -523 -12 -103 -65 -317 -96 -392 -110 -265 -269 -480 -492 -668 -46
-38 -92 -84 -103 -101 -22 -37 -25 -98 -5 -152 15 -43 295 -530 333 -580 64
-84 154 -83 273 5 338 248 616 574 794 929 137 273 201 482 258 837 19 124 16
513 -5 660 -65 441 -236 853 -501 1205 -89 119 -300 337 -420 434 -462 376
-1049 582 -1636 574 -74 -1 -153 -3 -175 -5z"/>
<path d="M2567 3670 c-420 -71 -742 -403 -803 -827 -74 -514 280 -999 796
-1088 461 -80 908 179 1075 623 43 112 57 196 56 337 0 261 -89 480 -275 674
-129 134 -320 238 -506 276 -80 16 -260 18 -343 5z"/>
</g>
</svg>
