<?xml version="1.0" encoding="UTF-8" standalone="no"?>
<!DOCTYPE svg PUBLIC "-//W3C//DTD SVG 1.1//EN" "http://www.w3.org/Graphics/SVG/1.1/DTD/svg11.dtd">
<svg width="100%" height="100%" viewBox="0 0 829 831" version="1.1" xmlns="http://www.w3.org/2000/svg" xmlns:xlink="http://www.w3.org/1999/xlink" xml:space="preserve" xmlns:serif="http://www.serif.com/" style="fill-rule:evenodd;clip-rule:evenodd;stroke-linejoin:round;stroke-miterlimit:2;">
    <g transform="matrix(1,0,0,1,-639.032,-360.933)">
        <g>
            <g transform="matrix(1,0,0,0.701744,0,230.364)">
                <rect x="639.032" y="363.423" width="828.28" height="828.28"/>
            </g>
            <g transform="matrix(1.02071,0,0,1.02041,-22.1224,-16.2568)">
                <ellipse cx="1053.48" cy="491.616" rx="405.739" ry="121.971"/>
            </g>
            <g transform="matrix(1.0207,0,0,1.02041,-22.1232,564.984)">
                <ellipse cx="1053.48" cy="491.616" rx="405.739" ry="121.971" style="fill:white;"/>
                <path d="M1053.48,369.646C1277.42,369.646 1459.22,424.299 1459.22,491.616C1459.22,558.934 1277.42,613.587 1053.48,613.587C829.55,613.587 647.744,558.934 647.744,491.616C647.744,424.299 829.55,369.646 1053.48,369.646ZM1053.48,389.168C1184.79,389.168 1301.32,408.074 1373.49,437.665C1395.64,446.745 1413.37,456.68 1425.45,467.578C1434.03,475.318 1439.7,483.014 1439.7,491.616C1439.7,500.218 1434.03,507.915 1425.45,515.654C1413.37,526.552 1395.64,536.487 1373.49,545.567C1301.32,575.159 1184.79,594.064 1053.48,594.064C922.181,594.064 805.65,575.159 733.473,545.567C711.327,536.487 693.594,526.552 681.515,515.654C672.937,507.915 667.261,500.218 667.261,491.616C667.261,483.014 672.937,475.318 681.515,467.578C693.594,456.68 711.327,446.745 733.473,437.665C805.65,408.074 922.181,389.168 1053.48,389.168Z"/>
            </g>
        </g>
    </g>
</svg>
