<?xml version="1.0" encoding="UTF-8" standalone="no"?>
<!DOCTYPE svg PUBLIC "-//W3C//DTD SVG 1.1//EN" "http://www.w3.org/Graphics/SVG/1.1/DTD/svg11.dtd">
<svg width="100%" height="100%" viewBox="0 0 302 467" version="1.1" xmlns="http://www.w3.org/2000/svg" xmlns:xlink="http://www.w3.org/1999/xlink" xml:space="preserve" xmlns:serif="http://www.serif.com/" style="fill-rule:evenodd;clip-rule:evenodd;stroke-linejoin:round;stroke-miterlimit:2;">
    <g transform="matrix(1,0,0,1,-1863.52,-314.438)">
        <g>
            <g>
                <path d="M2038.5,780.17C2037.69,780.17 2036.89,779.78 2036.41,779.05C2035.65,777.9 2035.97,776.35 2037.12,775.59C2039.49,774.02 2041.98,772.66 2044.38,771.34C2045.35,770.81 2046.32,770.28 2047.28,769.73L2057.33,764.03C2059.93,762.56 2062.63,761.32 2065.24,760.13C2066.07,759.75 2066.91,759.37 2067.74,758.98L2078.01,754.18C2080.61,752.97 2083.31,752.06 2085.93,751.18C2086.97,750.83 2088.01,750.48 2089.04,750.12C2089.85,749.83 2090.66,749.53 2091.47,749.23C2094.23,748.21 2097.08,747.15 2100.04,746.49L2110.94,744.05C2112.71,743.65 2114.71,743.21 2116.85,743.09L2128.65,742.43C2130.44,742.33 2132.24,742.73 2133.82,743.08C2134.39,743.21 2134.96,743.33 2135.51,743.43L2138.56,743.97C2138.84,744.02 2139.14,744.05 2139.43,744.09C2140.21,744.19 2141.1,744.3 2141.99,744.6C2142.9,744.92 2143.72,745.4 2144.44,745.84C2144.72,746.01 2145,746.18 2145.28,746.33L2148.21,747.9C2149.43,748.55 2149.89,750.07 2149.24,751.28C2148.59,752.5 2147.07,752.96 2145.86,752.31L2142.93,750.74C2142.59,750.56 2142.23,750.35 2141.88,750.14C2141.34,749.82 2140.79,749.48 2140.36,749.34C2139.98,749.21 2139.42,749.14 2138.83,749.07C2138.45,749.02 2138.07,748.98 2137.7,748.91L2134.65,748.37C2134.03,748.26 2133.39,748.12 2132.74,747.98C2131.41,747.68 2130.03,747.37 2128.93,747.44L2117.13,748.1C2115.4,748.2 2113.69,748.58 2112.03,748.95L2101.13,751.39C2098.49,751.98 2095.92,752.93 2093.2,753.94C2092.37,754.25 2091.54,754.55 2090.71,754.85C2089.65,755.23 2088.58,755.59 2087.51,755.95C2085.03,756.78 2082.46,757.64 2080.12,758.74L2069.85,763.54C2069.01,763.93 2068.16,764.32 2067.31,764.71C2064.8,765.86 2062.2,767.04 2059.79,768.41L2049.74,774.11C2048.76,774.66 2047.77,775.21 2046.78,775.75C2044.46,777.02 2042.07,778.34 2039.87,779.79C2039.45,780.04 2038.98,780.17 2038.5,780.17Z" style="fill:rgb(28,0,255);fill-rule:nonzero;"/>
            </g>
            <g>
                <path d="M2003.1,780.71C2002.34,780.71 2001.59,780.37 2001.1,779.71C2000.27,778.61 2000.49,777.04 2001.6,776.21L2015.63,765.66C2018.96,763.16 2022.49,760.91 2025.89,758.73C2027.39,757.77 2028.89,756.81 2030.37,755.84L2037.53,751.11C2039.28,749.95 2041.11,748.96 2042.87,748C2043.63,747.59 2044.38,747.18 2045.12,746.76C2046.61,745.92 2048.09,745.05 2049.57,744.17C2053.13,742.07 2056.81,739.91 2060.61,738.14L2076.22,730.87C2080.24,729 2084.43,727.57 2088.48,726.19C2089.72,725.77 2090.95,725.35 2092.18,724.91L2092.61,724.76C2095.18,723.85 2097.85,722.91 2100.65,722.3L2112.89,719.64C2114.64,719.26 2116.3,719.15 2117.71,719.09L2126.37,718.68C2127.97,718.6 2129.63,718.52 2131.45,718.87L2140.6,720.59C2142.34,720.92 2143.79,721.75 2145.07,722.49C2145.33,722.64 2145.59,722.79 2145.86,722.94L2150.25,725.36C2150.89,725.7 2151.7,726.12 2152.41,726.86C2152.89,727.35 2153.3,727.89 2153.66,728.36C2153.81,728.56 2153.96,728.75 2154.11,728.94L2157.49,733.11C2157.97,733.69 2158.57,734.4 2158.98,735.37C2159.29,736.11 2159.51,736.86 2159.72,737.57C2159.81,737.87 2159.89,738.17 2159.99,738.46C2160.41,739.77 2159.69,741.18 2158.37,741.6C2157.06,742.02 2155.65,741.3 2155.23,739.98C2155.12,739.64 2155.02,739.3 2154.92,738.95C2154.74,738.34 2154.58,737.77 2154.38,737.3C2154.26,737.03 2153.99,736.7 2153.67,736.31C2153.55,736.17 2153.44,736.03 2153.32,735.89L2150.23,732.07C2150.05,731.84 2149.87,731.61 2149.69,731.37C2149.39,730.97 2149.1,730.6 2148.83,730.32C2148.66,730.15 2148.3,729.96 2147.91,729.75L2143.43,727.28C2143.14,727.12 2142.86,726.96 2142.57,726.79C2141.5,726.17 2140.58,725.64 2139.67,725.47L2130.52,723.75C2129.28,723.52 2128.04,723.58 2126.61,723.64L2117.95,724.05C2116.41,724.12 2115.2,724.22 2113.96,724.49L2101.72,727.15C2099.23,727.69 2096.82,728.54 2094.28,729.44L2093.85,729.59C2092.6,730.03 2091.35,730.46 2090.1,730.88C2086.18,732.22 2082.12,733.6 2078.34,735.36L2062.73,742.63C2059.15,744.29 2055.58,746.4 2052.12,748.44C2050.61,749.33 2049.1,750.22 2047.59,751.07C2046.82,751.5 2046.04,751.93 2045.27,752.35C2043.52,753.3 2041.86,754.2 2040.29,755.24L2033.13,759.97C2031.63,760.96 2030.11,761.93 2028.59,762.9C2025.26,765.03 2021.82,767.23 2018.64,769.61L2004.61,780.16C2004.15,780.55 2003.62,780.71 2003.1,780.71Z" style="fill:rgb(30,33,255);fill-rule:nonzero;"/>
            </g>
            <g>
                <path d="M1975.47,779.29C1974.81,779.29 1974.15,779.03 1973.66,778.51C1972.71,777.51 1972.75,775.93 1973.75,774.97C1975.57,773.24 1977.51,771.65 1979.38,770.11C1980.24,769.4 1981.1,768.7 1981.95,767.98L1990.33,760.86C1995.3,756.64 2000.52,752.71 2005.57,748.92L2007.87,747.19C2008.8,746.49 2009.73,745.77 2010.65,745.06C2012.6,743.55 2014.62,741.99 2016.69,740.56C2018.7,739.17 2020.75,737.83 2022.75,736.54C2023.75,735.89 2024.75,735.24 2025.75,734.58L2034.76,728.63C2037.76,726.65 2040.75,724.93 2044.07,723.06C2045.44,722.29 2046.8,721.51 2048.16,720.72C2052.97,717.96 2057.94,715.11 2063.05,712.74C2064.63,712.01 2066.2,711.26 2067.78,710.5C2072.56,708.21 2077.51,705.85 2082.6,704.08L2092.57,700.61C2093.11,700.42 2093.65,700.23 2094.19,700.03C2095.31,699.62 2096.47,699.2 2097.65,698.84C2098.92,698.46 2100.19,698.22 2101.41,697.99C2101.92,697.89 2102.44,697.8 2102.94,697.69L2113.13,695.53C2115.82,694.96 2118.54,694.92 2121.17,694.88C2122.04,694.87 2122.91,694.86 2123.76,694.82C2124.34,694.8 2124.92,694.77 2125.5,694.74C2126.68,694.68 2127.89,694.62 2129.12,694.62C2130.65,694.62 2132.12,694.98 2133.41,695.29C2133.88,695.41 2134.35,695.52 2134.81,695.61L2140.4,696.73C2141.18,696.87 2142.15,697.04 2143.13,697.6L2150.41,701.75C2151.11,702.13 2152.06,702.65 2152.83,703.62L2158.13,710.32C2159.26,711.75 2159.76,713.59 2160.2,715.22C2160.32,715.66 2160.43,716.09 2160.56,716.49L2162.31,722.03C2162.73,723.35 2161.99,724.75 2160.68,725.17C2159.36,725.58 2157.96,724.85 2157.54,723.54L2155.79,718C2155.64,717.54 2155.51,717.04 2155.37,716.53C2155.06,715.37 2154.7,714.05 2154.21,713.43L2148.91,706.73C2148.78,706.56 2148.41,706.37 2148.03,706.16C2147.87,706.07 2147.72,705.99 2147.56,705.9L2140.65,701.95C2140.42,701.82 2139.98,701.74 2139.52,701.66C2139.34,701.63 2139.16,701.6 2138.98,701.56L2133.82,700.53C2133.3,700.43 2132.76,700.3 2132.22,700.16C2131.1,699.89 2130.05,699.63 2129.15,699.63C2128.02,699.63 2126.92,699.69 2125.75,699.75C2125.15,699.78 2124.55,699.81 2123.95,699.83C2123.05,699.86 2122.15,699.88 2121.24,699.89C2118.74,699.93 2116.39,699.96 2114.17,700.43L2103.98,702.59C2103.44,702.7 2102.89,702.81 2102.34,702.91C2101.19,703.13 2100.11,703.33 2099.1,703.64C2098.05,703.96 2097.01,704.34 2095.9,704.74C2095.34,704.95 2094.77,705.15 2094.21,705.35L2084.24,708.82C2079.41,710.5 2074.59,712.8 2069.93,715.03C2068.34,715.79 2066.74,716.55 2065.15,717.29C2060.23,719.57 2055.36,722.36 2050.65,725.07C2049.28,725.86 2047.9,726.65 2046.53,727.42C2043.3,729.25 2040.39,730.92 2037.52,732.81L2028.51,738.76C2027.5,739.42 2026.49,740.08 2025.48,740.74C2023.52,742.02 2021.49,743.34 2019.54,744.68C2017.58,746.03 2015.62,747.55 2013.72,749.02C2012.78,749.75 2011.84,750.48 2010.89,751.19L2008.59,752.92C2003.6,756.67 1998.43,760.55 1993.58,764.68L1985.2,771.8C1984.33,772.54 1983.45,773.26 1982.57,773.98C1980.77,775.46 1978.9,777 1977.21,778.61C1976.71,779.06 1976.09,779.29 1975.47,779.29Z" style="fill:rgb(31,70,255);fill-rule:nonzero;"/>
            </g>
            <g>
                <path d="M1953.16,776.56C1952.55,776.56 1951.94,776.34 1951.46,775.89C1950.45,774.95 1950.39,773.37 1951.34,772.36C1955.63,767.76 1960.24,763.42 1964.7,759.23C1966.28,757.75 1967.86,756.26 1969.42,754.77C1974.49,749.92 1979.86,745.38 1985.05,740.98C1986.16,740.04 1987.27,739.1 1988.37,738.16L1988.64,737.93C1991.69,735.33 1994.85,732.64 1998.12,730.17L2008.01,722.7C2008.83,722.08 2009.65,721.45 2010.47,720.82C2012.93,718.93 2015.47,716.98 2018.11,715.24L2028.48,708.39C2029.48,707.73 2030.47,707.06 2031.46,706.38C2033.89,704.72 2036.41,703 2039.02,701.53L2049.65,695.53C2050.61,694.99 2051.57,694.43 2052.53,693.87C2055.1,692.37 2057.76,690.83 2060.52,689.55L2071.93,684.3C2075.48,682.66 2079.16,680.97 2082.98,679.66L2094.45,675.71C2096.26,675.09 2098.23,674.45 2100.36,674.01L2112.08,671.6C2112.34,671.55 2112.59,671.49 2112.85,671.43C2113.56,671.27 2114.36,671.08 2115.2,671.01C2116.01,670.94 2116.79,670.93 2117.55,670.92C2117.89,670.92 2118.23,670.91 2118.57,670.9L2124.25,670.73C2124.75,670.72 2125.27,670.68 2125.8,670.64C2127.37,670.53 2129.15,670.41 2130.9,670.78L2139.24,672.56C2139.48,672.61 2139.74,672.65 2139.99,672.7C2140.82,672.84 2141.77,673 2142.7,673.42C2144.06,674.04 2145.31,674.84 2146.53,675.61C2147.08,675.96 2147.63,676.31 2148.17,676.63L2150.96,678.27C2151.39,678.51 2151.98,678.84 2152.52,679.38C2152.91,679.77 2153.21,680.2 2153.46,680.54C2153.55,680.66 2153.63,680.78 2153.72,680.9L2157.69,686.03C2158.38,686.92 2159.09,687.83 2159.54,689.28L2162.47,698.74C2162.88,700.06 2162.14,701.46 2160.82,701.87C2159.5,702.28 2158.1,701.54 2157.69,700.22L2154.76,690.76C2154.59,690.2 2154.31,689.83 2153.74,689.09L2149.77,683.95C2149.64,683.79 2149.52,683.61 2149.4,683.44C2149.25,683.23 2149.09,683 2148.98,682.89C2148.93,682.85 2148.7,682.72 2148.55,682.64C2148.43,682.57 2148.3,682.5 2148.18,682.43L2145.65,680.94C2145.06,680.59 2144.46,680.21 2143.87,679.83C2142.75,679.12 2141.7,678.45 2140.66,677.97C2140.32,677.82 2139.74,677.72 2139.19,677.63C2138.86,677.57 2138.54,677.52 2138.23,677.45L2129.89,675.67C2128.83,675.44 2127.54,675.53 2126.18,675.63C2125.59,675.67 2125.01,675.71 2124.44,675.73L2118.76,675.9C2118.39,675.91 2118.02,675.91 2117.65,675.92C2116.96,675.93 2116.3,675.93 2115.68,675.99C2115.18,676.03 2114.61,676.16 2114.01,676.3C2113.71,676.37 2113.42,676.44 2113.13,676.5L2101.41,678.91C2099.56,679.29 2097.77,679.87 2096.12,680.44L2084.65,684.39C2081.07,685.62 2077.67,687.19 2074.07,688.85L2062.66,694.1C2060.12,695.27 2057.56,696.76 2055.09,698.2C2054.11,698.77 2053.13,699.34 2052.16,699.89L2041.52,705.89C2039.09,707.26 2036.66,708.92 2034.32,710.52C2033.31,711.21 2032.29,711.9 2031.28,712.57L2020.91,719.42C2018.42,721.06 2015.95,722.96 2013.57,724.8C2012.74,725.44 2011.91,726.08 2011.07,726.71L2001.18,734.18C1998.03,736.56 1994.93,739.2 1991.93,741.76L1991.66,741.99C1990.55,742.94 1989.44,743.88 1988.33,744.82C1983.19,749.17 1977.88,753.67 1972.92,758.41C1971.34,759.91 1969.76,761.41 1968.17,762.9C1963.77,767.04 1959.22,771.31 1955.04,775.8C1954.5,776.3 1953.83,776.56 1953.16,776.56Z" style="fill:rgb(31,92,255);fill-rule:nonzero;"/>
            </g>
            <g>
                <path d="M1934.2,773.06C1933.64,773.06 1933.08,772.87 1932.62,772.49C1931.55,771.61 1931.4,770.04 1932.27,768.97C1936.77,763.48 1941.66,758.29 1946.39,753.27C1947.99,751.57 1949.59,749.88 1951.17,748.17C1955.82,743.15 1960.83,738.44 1965.67,733.87C1967.5,732.14 1969.34,730.42 1971.15,728.67C1976.04,723.98 1981.26,719.6 1986.32,715.36C1988.28,713.72 1990.24,712.08 1992.17,710.42C1997.29,706.04 2002.74,702.01 2008.01,698.11C2010.1,696.57 2012.18,695.02 2014.25,693.46C2017.08,691.32 2020.05,689.39 2022.92,687.52C2023.84,686.92 2024.77,686.32 2025.69,685.71L2037.25,678.06C2039.94,676.28 2042.78,674.76 2045.52,673.28C2046.77,672.61 2048.02,671.94 2049.25,671.24C2050.18,670.72 2051.11,670.18 2052.04,669.65C2054.99,667.95 2058.04,666.2 2061.2,664.75L2073.51,659.11C2074.08,658.85 2074.65,658.57 2075.22,658.3C2076.76,657.56 2078.34,656.8 2080.02,656.23L2092.63,651.94C2093.12,651.77 2093.62,651.6 2094.11,651.42C2095.76,650.83 2097.46,650.22 2099.27,649.86L2112.34,647.25C2115.88,646.54 2119.45,646.53 2122.9,646.52C2123.89,646.52 2124.89,646.51 2125.87,646.49L2128.91,646.43C2130.13,646.4 2131.26,646.67 2132.24,646.91C2132.45,646.96 2132.66,647.01 2132.87,647.06L2139.19,648.48C2139.45,648.54 2139.72,648.59 2140,648.64C2140.88,648.8 2141.88,648.98 2142.85,649.43C2143.71,649.83 2144.47,650.33 2145.2,650.81C2145.51,651.01 2145.82,651.21 2146.12,651.4L2149,653.15C2149.27,653.32 2149.57,653.47 2149.88,653.63C2150.7,654.06 2151.63,654.55 2152.44,655.29C2153.16,655.95 2153.71,656.77 2154.2,657.49C2154.38,657.76 2154.56,658.03 2154.74,658.26L2156.98,661.23C2157.15,661.46 2157.36,661.69 2157.56,661.93C2158.13,662.6 2158.78,663.36 2159.23,664.28C2159.7,665.24 2159.96,666.3 2160.2,667.24C2160.3,667.62 2160.39,668 2160.49,668.35L2162.61,675.34C2163.01,676.66 2162.27,678.06 2160.94,678.46C2159.62,678.86 2158.22,678.12 2157.82,676.79L2155.7,669.8C2155.57,669.38 2155.46,668.92 2155.34,668.46C2155.15,667.72 2154.96,666.96 2154.72,666.47C2154.55,666.13 2154.13,665.63 2153.75,665.18C2153.48,664.86 2153.21,664.55 2152.98,664.24L2150.74,661.28C2150.51,660.97 2150.28,660.63 2150.04,660.28C2149.71,659.79 2149.34,659.24 2149.06,658.98C2148.73,658.68 2148.12,658.36 2147.54,658.05C2147.14,657.84 2146.75,657.63 2146.4,657.42L2143.53,655.67C2143.17,655.45 2142.82,655.22 2142.46,654.99C2141.84,654.59 2141.26,654.2 2140.72,653.95C2140.35,653.77 2139.72,653.66 2139.12,653.55C2138.77,653.49 2138.43,653.42 2138.1,653.35L2131.78,651.93C2131.54,651.88 2131.31,651.82 2131.07,651.76C2130.32,651.58 2129.63,651.43 2129.02,651.42L2125.98,651.48C2124.96,651.5 2123.94,651.51 2122.92,651.51C2119.56,651.52 2116.39,651.54 2113.32,652.15L2100.25,654.76C2098.8,655.05 2097.34,655.57 2095.79,656.12C2095.27,656.3 2094.76,656.49 2094.24,656.66L2081.63,660.95C2080.24,661.42 2078.85,662.09 2077.39,662.79C2076.79,663.08 2076.19,663.36 2075.6,663.64L2063.29,669.28C2060.34,670.63 2057.39,672.33 2054.54,673.97C2053.6,674.51 2052.66,675.06 2051.71,675.59C2050.45,676.3 2049.17,676.98 2047.9,677.67C2045.25,679.09 2042.52,680.56 2040.02,682.21L2028.46,689.86C2027.53,690.48 2026.6,691.08 2025.66,691.69C2022.86,693.51 2019.97,695.39 2017.28,697.43C2015.2,699.01 2013.1,700.56 2011,702.12C2005.8,705.97 2000.42,709.95 1995.43,714.21C1993.48,715.88 1991.51,717.53 1989.54,719.18C1984.55,723.36 1979.39,727.68 1974.62,732.26C1972.79,734.01 1970.95,735.75 1969.1,737.49C1964.32,742 1959.37,746.66 1954.84,751.55C1953.25,753.27 1951.64,754.97 1950.04,756.68C1945.37,761.64 1940.54,766.77 1936.15,772.13C1935.64,772.74 1934.92,773.06 1934.2,773.06Z" style="fill:rgb(33,113,255);fill-rule:nonzero;"/>
            </g>
            <g>
                <path d="M1918.04,768.91C1917.54,768.91 1917.03,768.76 1916.6,768.45C1915.47,767.65 1915.21,766.09 1916.01,764.96C1918.58,761.33 1921.39,757.9 1924.11,754.58L1925.73,752.6C1926.73,751.38 1927.71,750.13 1928.69,748.88C1930.87,746.11 1933.13,743.24 1935.56,740.62C1937.39,738.63 1939.21,736.63 1941.03,734.62C1946.07,729.06 1951.28,723.31 1956.73,718.04L1967.71,707.45C1971.59,703.71 1975.3,700.32 1979.06,697.09L1990.6,687.18C1994.5,683.84 1998.58,680.73 2002.54,677.73L2014.59,668.58C2017.53,666.35 2020.63,664.35 2023.62,662.42C2024.78,661.67 2025.93,660.93 2027.08,660.17C2028.18,659.44 2029.27,658.7 2030.36,657.96C2033.32,655.96 2036.37,653.88 2039.54,652.1L2052.63,644.74C2053.29,644.37 2053.95,643.99 2054.61,643.6C2056.07,642.75 2057.58,641.87 2059.14,641.11C2060.63,640.38 2062.16,639.7 2063.63,639.05C2064.36,638.72 2065.09,638.4 2065.82,638.07L2072.61,634.97C2073.28,634.66 2073.95,634.34 2074.62,634.02C2076.22,633.26 2077.87,632.46 2079.59,631.84C2082.66,630.72 2085.8,629.69 2088.84,628.7C2090.36,628.2 2091.88,627.71 2093.4,627.2C2095.84,626.38 2098.24,625.61 2100.84,625.11L2108.05,623.72C2108.75,623.58 2109.47,623.42 2110.18,623.26C2111.85,622.88 2113.58,622.49 2115.36,622.36C2117.02,622.24 2118.67,622.25 2120.26,622.26C2121.02,622.26 2121.79,622.27 2122.54,622.26L2125.96,622.22C2126.34,622.22 2126.73,622.19 2127.12,622.17C2128.02,622.12 2129.05,622.07 2130.08,622.18C2131.81,622.37 2133.48,622.84 2135.1,623.29C2135.83,623.49 2136.55,623.7 2137.27,623.87L2140.62,624.67C2140.76,624.7 2140.9,624.73 2141.05,624.76C2141.52,624.84 2142.09,624.95 2142.69,625.2C2143.33,625.47 2143.87,625.85 2144.3,626.15C2144.45,626.25 2144.6,626.36 2144.74,626.45L2151.18,630.48C2153.13,631.7 2154.5,633.72 2155.71,635.5C2156.05,636 2156.38,636.49 2156.72,636.94C2156.94,637.24 2157.17,637.53 2157.41,637.83C2157.95,638.52 2158.51,639.23 2159.01,640.04C2159.68,641.13 2160,642.37 2160.29,643.47C2160.37,643.78 2160.45,644.09 2160.54,644.38L2162.77,651.84C2163.16,653.16 2162.41,654.56 2161.09,654.95C2159.76,655.34 2158.37,654.59 2157.98,653.27L2155.75,645.81C2155.65,645.46 2155.55,645.1 2155.45,644.73C2155.24,643.93 2155.03,643.11 2154.74,642.65C2154.4,642.09 2153.95,641.52 2153.48,640.92C2153.22,640.58 2152.96,640.25 2152.71,639.92C2152.34,639.41 2151.96,638.87 2151.59,638.32C2150.61,636.88 2149.6,635.4 2148.54,634.73L2142.1,630.7C2141.89,630.57 2141.67,630.42 2141.45,630.26C2141.21,630.09 2140.91,629.88 2140.76,629.82C2140.66,629.78 2140.35,629.72 2140.15,629.69C2139.92,629.65 2139.69,629.6 2139.47,629.55L2136.12,628.75C2135.34,628.57 2134.56,628.35 2133.76,628.12C2132.27,627.7 2130.86,627.31 2129.53,627.16C2128.9,627.09 2128.17,627.13 2127.38,627.17C2126.92,627.19 2126.47,627.22 2126.03,627.22L2122.61,627.26C2121.82,627.27 2121.02,627.26 2120.23,627.26C2118.66,627.25 2117.18,627.24 2115.72,627.34C2114.32,627.44 2112.84,627.78 2111.28,628.13C2110.51,628.3 2109.75,628.48 2108.99,628.62L2101.78,630.01C2099.48,630.45 2097.26,631.18 2094.99,631.94C2093.46,632.45 2091.93,632.95 2090.39,633.46C2087.39,634.44 2084.3,635.45 2081.31,636.54C2079.81,637.09 2078.34,637.79 2076.78,638.54C2076.08,638.87 2075.38,639.21 2074.68,639.53L2067.89,642.63C2067.15,642.97 2066.4,643.3 2065.66,643.63C2064.23,644.27 2062.75,644.92 2061.34,645.61C2059.94,646.3 2058.58,647.09 2057.13,647.93C2056.45,648.33 2055.77,648.72 2055.09,649.11L2042,656.47C2039.01,658.15 2036.05,660.16 2033.18,662.11C2032.07,662.86 2030.96,663.61 2029.85,664.35C2028.69,665.12 2027.52,665.87 2026.35,666.63C2023.43,668.51 2020.42,670.46 2017.63,672.57L2005.61,681.69C2001.68,684.67 1997.65,687.73 1993.87,690.98L1982.33,700.89C1978.64,704.06 1975,707.38 1971.19,711.05L1960.22,721.64C1954.88,726.79 1949.73,732.48 1944.75,737.97C1942.92,739.99 1941.09,742.01 1939.25,744.01C1936.96,746.5 1934.76,749.28 1932.63,751.98C1931.63,753.25 1930.63,754.52 1929.62,755.76L1927.99,757.75C1925.33,761 1922.57,764.36 1920.1,767.85C1919.59,768.54 1918.82,768.91 1918.04,768.91Z" style="fill:rgb(35,133,255);fill-rule:nonzero;"/>
            </g>
            <g>
                <path d="M1904.38,764.22C1903.94,764.22 1903.5,764.11 1903.1,763.87C1901.91,763.16 1901.53,761.63 1902.23,760.44C1904.42,756.77 1906.92,753.3 1909.34,749.94C1910.19,748.76 1911.04,747.58 1911.88,746.39L1916.72,739.51C1918.1,737.55 1919.6,735.71 1921.05,733.92L1932.25,720.08C1935.12,716.54 1938.21,713.19 1941.2,709.96C1941.96,709.13 1942.73,708.31 1943.49,707.48C1944.47,706.41 1945.45,705.32 1946.43,704.24C1949.17,701.2 1952.01,698.05 1955,695.15L1972.6,678.09C1974.05,676.69 1975.58,675.4 1977.06,674.16C1977.66,673.66 1978.26,673.15 1978.85,672.64L1991.5,661.75C1994.86,658.86 1998.4,656.18 2001.83,653.6C2002.67,652.96 2003.51,652.33 2004.35,651.69C2005.58,650.75 2006.81,649.8 2008.03,648.84C2011.03,646.49 2014.14,644.07 2017.37,641.93L2030.79,633.05C2031.53,632.56 2032.27,632.05 2033.02,631.55C2034.52,630.53 2036.08,629.47 2037.66,628.5C2039.22,627.55 2040.82,626.68 2042.37,625.83C2043.13,625.41 2043.89,625 2044.65,624.58C2046.17,623.73 2047.68,622.87 2049.19,622.01C2052.22,620.29 2055.36,618.5 2058.49,616.82C2060.18,615.91 2061.92,615.15 2063.61,614.43C2064.34,614.11 2065.08,613.8 2065.8,613.47L2073.15,610.14C2073.72,609.88 2074.29,609.62 2074.86,609.35C2076.7,608.49 2078.61,607.6 2080.61,606.93L2095.68,601.93C2098.11,601.12 2100.55,600.67 2102.9,600.23L2111.17,598.68C2111.56,598.61 2111.95,598.52 2112.35,598.43C2113.27,598.23 2114.21,598.02 2115.22,597.93C2116.19,597.84 2117.13,597.87 2118.04,597.89C2118.44,597.9 2118.84,597.91 2119.24,597.91L2127.05,597.88C2127.29,597.88 2127.53,597.87 2127.77,597.87C2128.83,597.85 2130.02,597.82 2131.27,598.13L2138.73,599.99C2139.06,600.07 2139.4,600.14 2139.75,600.21C2140.88,600.44 2142.16,600.71 2143.36,601.35C2144.98,602.22 2146.5,603.26 2147.98,604.26C2148.68,604.74 2149.38,605.21 2150.08,605.66L2150.56,605.96C2151.56,606.58 2152.7,607.29 2153.64,608.6L2158.63,615.49C2159.03,616.05 2159.54,616.74 2159.84,617.77L2162.92,628.26C2163.31,629.59 2162.55,630.97 2161.22,631.36C2159.9,631.75 2158.51,630.99 2158.12,629.66L2155.04,619.17C2154.99,618.98 2154.88,618.83 2154.58,618.42L2149.58,611.52C2149.23,611.03 2148.74,610.71 2147.9,610.19L2147.36,609.85C2146.62,609.38 2145.89,608.88 2145.15,608.38C2143.72,607.4 2142.36,606.48 2140.98,605.74C2140.42,605.44 2139.6,605.27 2138.72,605.09C2138.3,605 2137.89,604.92 2137.5,604.82L2130.04,602.96C2129.44,602.81 2128.67,602.83 2127.86,602.85C2127.59,602.86 2127.32,602.86 2127.05,602.86L2119.24,602.89C2118.8,602.89 2118.35,602.88 2117.9,602.87C2117.09,602.85 2116.33,602.83 2115.63,602.89C2114.95,602.95 2114.2,603.11 2113.41,603.29C2112.96,603.39 2112.52,603.49 2112.07,603.57L2103.8,605.12C2101.51,605.55 2099.35,605.95 2097.24,606.65L2082.17,611.65C2080.44,612.22 2078.75,613.01 2076.96,613.85C2076.37,614.12 2075.78,614.4 2075.2,614.67L2067.85,618C2067.1,618.34 2066.34,618.67 2065.58,619C2063.92,619.72 2062.35,620.4 2060.85,621.2C2057.77,622.86 2054.66,624.63 2051.65,626.34C2050.13,627.21 2048.61,628.07 2047.08,628.93C2046.31,629.36 2045.53,629.79 2044.75,630.21C2043.26,631.02 2041.71,631.87 2040.26,632.75C2038.78,633.66 2037.27,634.68 2035.82,635.66C2035.06,636.17 2034.31,636.69 2033.54,637.19L2020.12,646.07C2017.06,648.1 2014.03,650.46 2011.1,652.75C2009.86,653.72 2008.61,654.69 2007.36,655.64C2006.51,656.28 2005.67,656.92 2004.82,657.56C2001.46,660.09 1997.99,662.72 1994.75,665.51L1982.1,676.4C1981.49,676.92 1980.88,677.44 1980.26,677.96C1978.78,679.2 1977.39,680.38 1976.07,681.65L1958.47,698.71C1955.6,701.49 1952.82,704.57 1950.14,707.56C1949.15,708.66 1948.17,709.75 1947.17,710.84C1946.41,711.67 1945.64,712.5 1944.87,713.34C1941.94,716.51 1938.9,719.8 1936.14,723.21L1924.93,737.06C1923.47,738.85 1922.1,740.55 1920.81,742.37L1915.97,749.25C1915.12,750.45 1914.26,751.65 1913.4,752.84C1911.05,756.11 1908.61,759.49 1906.53,762.98C1906.06,763.78 1905.23,764.22 1904.38,764.22Z" style="fill:rgb(35,153,255);fill-rule:nonzero;"/>
            </g>
            <g>
                <path d="M1893.09,759.03C1892.73,759.03 1892.36,758.95 1892.01,758.78C1890.76,758.19 1890.24,756.69 1890.83,755.45C1891.82,753.37 1893.02,751.42 1894.17,749.55C1894.61,748.84 1895.04,748.13 1895.46,747.41L1900.15,739.48C1901.65,736.94 1903.2,734.32 1904.94,731.83L1911.57,722.34C1914.41,718.24 1917.36,714.01 1920.54,710.05L1931.68,696.19C1934.74,692.38 1938.05,688.78 1941.25,685.29C1941.99,684.48 1942.74,683.67 1943.48,682.86C1944.32,681.94 1945.15,681.01 1945.99,680.09C1949.07,676.68 1952.26,673.15 1955.61,669.88L1968.25,657.57C1972.63,653.31 1977.09,649.41 1981.29,645.78C1982.68,644.58 1984.07,643.35 1985.45,642.12C1988.37,639.53 1991.38,636.85 1994.49,634.41C1997.56,632 2000.71,629.62 2003.75,627.32C2005.29,626.16 2006.82,625 2008.35,623.84C2009.13,623.24 2009.91,622.64 2010.69,622.04C2012.27,620.82 2013.86,619.6 2015.46,618.42C2017.08,617.23 2018.76,616.14 2020.39,615.09C2021.1,614.63 2021.82,614.17 2022.53,613.7L2036.81,604.24C2038.58,603.07 2040.43,602.07 2042.21,601.11C2042.93,600.72 2043.66,600.33 2044.37,599.93L2051.8,595.76C2052.53,595.35 2053.26,594.92 2054,594.49C2055.75,593.46 2057.55,592.4 2059.45,591.55L2067.17,588.07C2068.13,587.64 2069.1,587.19 2070.06,586.76C2074.23,584.85 2078.54,582.88 2083,581.41L2091.02,578.78C2091.71,578.55 2092.41,578.31 2093.1,578.07C2095.12,577.36 2097.2,576.63 2099.39,576.23L2107.58,574.75C2108.33,574.61 2109.09,574.45 2109.86,574.28C2111.92,573.83 2114.06,573.34 2116.23,573.37L2128.45,573.43C2130.16,573.44 2131.62,573.79 2133.22,574.2L2141.35,576.33C2142.04,576.5 2142.91,576.72 2143.8,577.31L2149.22,580.89C2149.53,581.1 2149.86,581.29 2150.2,581.49C2151.04,581.98 2152,582.54 2152.84,583.33C2153.38,583.84 2153.77,584.46 2154.08,584.95C2154.18,585.11 2154.27,585.26 2154.37,585.4L2158.64,591.42C2159.03,591.95 2159.51,592.62 2159.84,593.5C2160.08,594.14 2160.25,594.8 2160.41,595.38C2160.47,595.63 2160.54,595.88 2160.61,596.12L2163.06,604.61C2163.44,605.94 2162.68,607.32 2161.35,607.7C2160.02,608.08 2158.64,607.32 2158.26,605.99L2155.81,597.5C2155.73,597.22 2155.65,596.93 2155.58,596.63C2155.45,596.13 2155.33,595.65 2155.18,595.26C2155.08,595 2154.87,594.71 2154.61,594.34L2150.31,588.28C2150.16,588.07 2150.01,587.83 2149.86,587.59C2149.73,587.37 2149.52,587.05 2149.43,586.95C2149.02,586.56 2148.38,586.19 2147.71,585.79C2147.29,585.54 2146.88,585.3 2146.49,585.05L2141.08,581.47C2140.91,581.36 2140.63,581.28 2140.17,581.17L2139.83,581.09L2131.98,579.03C2130.63,578.68 2129.58,578.42 2128.46,578.42L2116.24,578.36C2114.58,578.36 2112.82,578.75 2110.97,579.15C2110.14,579.33 2109.32,579.51 2108.51,579.66L2100.32,581.14C2098.52,581.47 2096.71,582.1 2094.79,582.78C2094.06,583.04 2093.33,583.29 2092.61,583.53L2084.59,586.16C2080.39,587.54 2076.22,589.45 2072.17,591.3C2071.2,591.74 2070.23,592.19 2069.26,592.63L2061.54,596.11C2059.89,596.85 2058.28,597.8 2056.57,598.81C2055.81,599.26 2055.05,599.71 2054.28,600.13L2046.85,604.3C2046.11,604.71 2045.36,605.12 2044.62,605.52C2042.85,606.47 2041.18,607.37 2039.6,608.42L2025.32,617.88C2024.6,618.36 2023.86,618.83 2023.13,619.3C2021.57,620.31 2019.95,621.35 2018.46,622.45C2016.88,623.61 2015.33,624.81 2013.78,626.01C2012.99,626.62 2012.21,627.22 2011.42,627.82C2009.88,628.99 2008.34,630.15 2006.8,631.32C2003.77,633.6 2000.64,635.96 1997.62,638.34C1994.63,640.69 1991.67,643.32 1988.8,645.86C1987.4,647.1 1986,648.35 1984.59,649.57C1980.45,653.15 1976.05,656.99 1971.77,661.16L1959.13,673.47C1955.89,676.62 1952.76,680.09 1949.73,683.45C1948.89,684.38 1948.05,685.31 1947.21,686.24C1946.46,687.06 1945.72,687.87 1944.97,688.69C1941.83,692.11 1938.58,695.65 1935.61,699.34L1924.47,713.2C1921.4,717.03 1918.5,721.19 1915.71,725.21L1909.08,734.71C1907.45,737.04 1906.02,739.47 1904.5,742.04L1899.81,749.97C1899.37,750.71 1898.92,751.44 1898.47,752.18C1897.33,754.03 1896.26,755.78 1895.38,757.63C1894.92,758.5 1894.02,759.03 1893.09,759.03Z" style="fill:rgb(36,163,255);fill-rule:nonzero;"/>
            </g>
            <g>
                <path d="M1884.15,753.35C1883.79,753.35 1883.43,753.27 1883.08,753.11C1881.83,752.52 1881.3,751.03 1881.89,749.78L1890.17,732.26C1891.28,729.92 1892.59,727.73 1893.86,725.61C1894.26,724.94 1894.67,724.26 1895.07,723.59L1899.79,715.54C1901.37,712.84 1903.11,709.95 1905.05,707.15L1915.93,691.46C1917.46,689.25 1919.13,687.18 1920.74,685.17L1921.76,683.9C1923.09,682.23 1924.41,680.56 1925.74,678.89C1928.34,675.61 1931.03,672.21 1933.72,668.92C1935.12,667.21 1936.63,665.59 1938.08,664.03C1938.73,663.33 1939.37,662.64 1940.01,661.94L1946.23,655.08C1946.92,654.31 1947.61,653.54 1948.3,652.76C1949.7,651.18 1951.15,649.56 1952.64,648.01C1954.12,646.47 1955.66,644.99 1957.16,643.56C1957.9,642.85 1958.64,642.14 1959.37,641.43C1960.81,640.02 1962.25,638.6 1963.68,637.18C1966.54,634.36 1969.49,631.44 1972.46,628.62C1975.56,625.67 1978.85,622.9 1982.03,620.21C1983.55,618.93 1985.07,617.65 1986.57,616.35L1993.29,610.53C1994.99,609.05 1996.79,607.72 1998.53,606.43C1999.25,605.89 1999.98,605.35 2000.7,604.81L2015.15,593.77C2016.89,592.44 2018.71,591.27 2020.48,590.15C2021.24,589.66 2022,589.18 2022.75,588.68L2030.4,583.61C2031.14,583.12 2031.88,582.61 2032.63,582.1C2034.43,580.87 2036.29,579.59 2038.24,578.5L2045.86,574.24C2047.05,573.57 2048.24,572.9 2049.43,572.22C2053.52,569.89 2057.74,567.48 2062.11,565.52L2078.3,558.26C2080.34,557.34 2082.46,556.71 2084.51,556.1C2085.33,555.85 2086.15,555.61 2086.96,555.35L2095.39,552.62C2099.67,551.23 2104.12,550.54 2108.43,549.87C2109.89,549.64 2111.36,549.41 2112.8,549.16C2114.55,548.85 2115.99,548.73 2117.47,548.75L2126.27,548.87C2126.62,548.87 2126.97,548.87 2127.32,548.86C2128.59,548.84 2130.03,548.82 2131.47,549.21L2140.41,551.66C2141.65,551.99 2143.05,552.36 2144.44,553.31L2152,558.44C2153.37,559.37 2154.26,560.76 2155.05,561.99C2155.25,562.29 2155.44,562.59 2155.63,562.87L2158.19,566.54C2158.31,566.71 2158.43,566.88 2158.56,567.05C2158.84,567.43 2159.15,567.87 2159.44,568.34C2160,569.27 2160.25,570.26 2160.48,571.14C2160.53,571.35 2160.58,571.56 2160.64,571.76L2163.21,580.82C2163.59,582.15 2162.81,583.53 2161.49,583.91C2160.15,584.29 2158.78,583.51 2158.4,582.19L2155.83,573.13C2155.76,572.88 2155.7,572.63 2155.63,572.38C2155.49,571.82 2155.34,571.23 2155.16,570.94C2154.96,570.62 2154.74,570.31 2154.52,570.01C2154.37,569.81 2154.23,569.61 2154.09,569.41L2151.54,565.74C2151.31,565.41 2151.09,565.06 2150.86,564.7C2150.33,563.88 2149.73,562.94 2149.21,562.59L2141.65,557.46C2140.96,556.99 2140.16,556.78 2139.14,556.51L2130.17,554.05C2129.41,553.84 2128.45,553.86 2127.42,553.87C2127.02,553.88 2126.62,553.88 2126.22,553.88L2117.42,553.76C2116.26,553.75 2115.11,553.85 2113.68,554.1C2112.2,554.36 2110.71,554.59 2109.21,554.82C2105.1,555.46 2100.85,556.12 2096.95,557.38L2088.52,560.11C2087.68,560.38 2086.82,560.64 2085.96,560.9C2083.98,561.49 2082.11,562.05 2080.36,562.83L2064.17,570.09C2060.02,571.95 2055.9,574.3 2051.92,576.57C2050.72,577.25 2049.52,577.94 2048.31,578.61L2040.69,582.87C2038.94,583.85 2037.25,585.01 2035.47,586.23C2034.71,586.75 2033.94,587.28 2033.18,587.79L2025.53,592.86C2024.76,593.37 2023.98,593.87 2023.19,594.37C2021.43,595.49 2019.77,596.55 2018.2,597.75L2003.75,608.79C2003.02,609.35 2002.27,609.9 2001.53,610.45C1999.87,611.69 1998.15,612.96 1996.59,614.31L1989.87,620.13C1988.36,621.44 1986.82,622.74 1985.29,624.04C1982.16,626.68 1978.93,629.41 1975.93,632.25C1973,635.03 1970.07,637.93 1967.22,640.74C1965.78,642.16 1964.34,643.59 1962.89,645C1962.15,645.73 1961.39,646.45 1960.64,647.17C1959.18,648.57 1957.68,650.01 1956.26,651.48C1954.84,652.96 1953.42,654.55 1952.06,656.09C1951.36,656.88 1950.66,657.67 1949.96,658.44L1943.74,665.31C1943.09,666.03 1942.43,666.74 1941.77,667.45C1940.37,668.95 1938.92,670.51 1937.62,672.1C1934.95,675.36 1932.27,678.74 1929.69,682.01C1928.36,683.69 1927.03,685.36 1925.7,687.03L1924.67,688.31C1923.04,690.34 1921.5,692.25 1920.07,694.32L1909.19,710.01C1907.34,712.67 1905.67,715.46 1904.14,718.08L1899.42,726.13C1899.01,726.82 1898.6,727.51 1898.19,728.2C1896.93,730.31 1895.73,732.29 1894.73,734.41L1886.45,751.93C1885.99,752.82 1885.09,753.35 1884.15,753.35Z" style="fill:rgb(36,172,255);fill-rule:nonzero;"/>
            </g>
            <g>
                <path d="M1877.76,747.16C1877.49,747.16 1877.22,747.12 1876.95,747.02C1875.64,746.57 1874.95,745.15 1875.39,743.85L1878.71,734.15C1878.94,733.47 1879.17,732.78 1879.4,732.1C1880.26,729.51 1881.15,726.84 1882.34,724.29L1886.69,715.01C1887.08,714.17 1887.47,713.32 1887.85,712.47C1888.88,710.18 1889.94,707.82 1891.23,705.61L1901.36,688.18C1903.76,684.05 1906.53,680.15 1909.22,676.37C1910.3,674.85 1911.37,673.34 1912.42,671.82C1912.83,671.23 1913.23,670.64 1913.63,670.05C1915.1,667.89 1916.62,665.66 1918.28,663.56L1926.44,653.27C1929.84,648.97 1933.35,644.52 1937.08,640.38L1950.11,625.93C1953.48,622.2 1957.1,618.69 1960.6,615.3C1961.76,614.18 1962.92,613.06 1964.07,611.92L1971.05,605.06C1972.94,603.2 1974.93,601.49 1976.86,599.83C1977.38,599.38 1977.91,598.93 1978.43,598.47L1993.11,585.69C1994.82,584.2 1996.62,582.86 1998.36,581.57C1999.08,581.03 1999.81,580.49 2000.52,579.94L2008.16,574.09C2008.94,573.49 2009.72,572.88 2010.49,572.27C2012.24,570.9 2014.04,569.48 2015.91,568.19C2017.69,566.96 2019.52,565.77 2021.29,564.61C2022.18,564.03 2023.07,563.45 2023.95,562.86C2025.27,561.98 2026.59,561.1 2027.9,560.2C2031.87,557.51 2035.97,554.74 2040.22,552.36L2056.54,543.25C2060.66,540.95 2065,539.09 2069.2,537.3C2070.79,536.62 2072.38,535.94 2073.96,535.24L2078.1,533.39C2079.39,532.81 2080.69,532.41 2081.94,532.03L2082.93,531.72L2092.58,528.63C2095.27,527.76 2098.06,526.87 2101,526.37L2114.39,524.1C2115.78,523.86 2117.16,523.93 2118.38,523.98C2118.74,524 2119.1,524.01 2119.46,524.02L2128.66,524.22C2131.31,524.28 2133.8,525.07 2136.21,525.84C2136.92,526.07 2137.63,526.29 2138.33,526.49C2138.77,526.62 2139.22,526.73 2139.67,526.84C2140.73,527.1 2141.82,527.37 2142.9,527.82C2144.21,528.36 2145.37,529.26 2146.4,530.05C2146.78,530.34 2147.15,530.63 2147.52,530.89L2151.5,533.66C2152.11,534.07 2152.87,534.57 2153.53,535.37C2154.02,535.97 2154.42,536.59 2154.81,537.2C2154.97,537.45 2155.13,537.7 2155.29,537.94L2159.25,543.74C2159.98,544.82 2160.28,545.9 2160.54,546.86L2160.65,547.26L2163.34,556.91C2163.71,558.24 2162.93,559.62 2161.6,559.99C2160.27,560.36 2158.89,559.58 2158.52,558.25L2155.71,548.16C2155.53,547.48 2155.38,546.93 2155.12,546.56L2151.16,540.76C2150.97,540.48 2150.79,540.19 2150.6,539.91C2150.27,539.4 2149.97,538.93 2149.66,538.55C2149.48,538.33 2149.13,538.1 2148.73,537.83C2148.58,537.73 2148.43,537.63 2148.29,537.53L2144.66,535C2144.23,534.7 2143.79,534.36 2143.34,534.02C2142.52,533.39 2141.68,532.74 2140.99,532.46C2140.25,532.15 2139.38,531.94 2138.46,531.71C2137.95,531.58 2137.43,531.46 2136.94,531.31C2136.19,531.1 2135.44,530.85 2134.68,530.61C2132.51,529.92 2130.46,529.26 2128.54,529.22L2119.34,529.02C2118.95,529.01 2118.55,528.99 2118.15,528.98C2117.09,528.93 2116.09,528.89 2115.21,529.04L2101.82,531.31C2099.24,531.75 2096.74,532.55 2094.1,533.4L2084.44,536.49C2084.1,536.6 2083.75,536.71 2083.4,536.81C2082.24,537.17 2081.14,537.51 2080.12,537.96L2075.98,539.81C2074.38,540.52 2072.77,541.21 2071.15,541.9C2067.07,543.65 2062.85,545.45 2058.96,547.62L2042.64,556.73C2038.58,559 2034.56,561.71 2030.68,564.34C2029.35,565.24 2028.02,566.14 2026.69,567.02C2025.8,567.61 2024.9,568.2 2024.01,568.78C2022.27,569.92 2020.47,571.1 2018.73,572.3C2016.99,573.5 2015.25,574.87 2013.56,576.19C2012.77,576.81 2011.97,577.44 2011.18,578.05L2003.54,583.9C2002.81,584.46 2002.06,585.01 2001.32,585.57C1999.65,586.81 1997.93,588.09 1996.36,589.45L1981.68,602.23C1981.15,602.69 1980.62,603.15 1980.09,603.6C1978.22,605.21 1976.29,606.87 1974.52,608.61L1967.54,615.47C1966.38,616.61 1965.21,617.74 1964.04,618.87C1960.6,622.2 1957.04,625.64 1953.79,629.25L1940.76,643.7C1937.13,647.72 1933.68,652.11 1930.33,656.34L1922.16,666.64C1920.61,668.59 1919.14,670.75 1917.72,672.83C1917.31,673.43 1916.9,674.03 1916.49,674.62C1915.43,676.16 1914.34,677.7 1913.25,679.23C1910.63,682.92 1907.92,686.73 1905.64,690.66L1895.51,708.09C1894.35,710.08 1893.35,712.32 1892.37,714.49C1891.98,715.37 1891.58,716.24 1891.18,717.1L1886.84,726.38C1885.77,728.66 1884.97,731.08 1884.11,733.65C1883.88,734.35 1883.64,735.05 1883.41,735.74L1880.09,745.44C1879.77,746.51 1878.79,747.16 1877.76,747.16Z" style="fill:rgb(36,189,255);fill-rule:nonzero;"/>
            </g>
            <g>
                <path d="M1874,740.44C1873.84,740.44 1873.68,740.43 1873.52,740.39C1872.16,740.13 1871.28,738.82 1871.54,737.46L1873.6,726.79C1873.71,726.23 1873.81,725.67 1873.91,725.11C1874.12,723.96 1874.34,722.76 1874.61,721.58C1874.94,720.15 1875.42,718.81 1875.89,717.51C1876.07,717.03 1876.24,716.54 1876.4,716.06L1879.82,705.97C1880.96,702.6 1882.43,699.45 1883.84,696.4L1888.48,686.39C1890.01,683.1 1891.69,680.13 1893.57,676.87C1894.35,675.52 1895.12,674.16 1895.89,672.8C1898.59,668.06 1901.37,663.15 1904.5,658.57C1905.81,656.66 1907.11,654.73 1908.4,652.81C1910.97,649 1913.63,645.06 1916.33,641.25C1917.76,639.24 1919.31,637.32 1920.81,635.47C1921.48,634.64 1922.15,633.81 1922.81,632.98L1929.23,624.84C1931.41,622.07 1933.56,619.37 1935.9,616.76L1949.58,601.5C1951.89,598.92 1954.32,596.5 1956.81,594.04L1971.38,579.66C1973.19,577.87 1975.12,576.23 1976.98,574.64C1977.69,574.03 1978.41,573.42 1979.11,572.81L1986.77,566.12C1987.49,565.49 1988.21,564.84 1988.93,564.2C1990.64,562.66 1992.41,561.07 1994.27,559.64L2002.24,553.52C2003.51,552.55 2004.77,551.57 2006.03,550.58C2010.03,547.46 2014.17,544.24 2018.46,541.39L2035.16,530.31C2039.25,527.6 2043.58,525.26 2047.77,523C2049.4,522.12 2051.02,521.25 2052.63,520.35L2052.98,520.16C2055.76,518.61 2058.63,517.01 2061.64,515.67L2070.67,511.67C2071.55,511.28 2072.42,510.87 2073.3,510.45C2075.44,509.43 2077.66,508.39 2079.97,507.65L2089.16,504.75C2090.08,504.46 2091.01,504.14 2091.94,503.81C2094.1,503.06 2096.33,502.29 2098.63,501.83C2100.8,501.39 2103.01,501.06 2105.13,500.74C2106.19,500.58 2107.24,500.42 2108.3,500.25L2112.9,499.5C2114.65,499.21 2116.34,499.11 2118.37,499.17L2127.98,499.46C2128.19,499.47 2128.41,499.46 2128.63,499.46C2129.23,499.45 2129.9,499.44 2130.6,499.56C2131.3,499.67 2131.93,499.89 2132.49,500.08C2132.7,500.15 2132.91,500.22 2133.11,500.28L2142.23,503C2143.82,503.47 2145.12,504.48 2146.27,505.38C2146.59,505.63 2146.9,505.87 2147.21,506.09L2151.03,508.82C2151.19,508.94 2151.37,509.05 2151.55,509.16C2152.07,509.49 2152.73,509.9 2153.29,510.48C2153.91,511.13 2154.37,511.89 2154.77,512.56C2154.92,512.81 2155.06,513.05 2155.2,513.27L2159.4,519.55C2160.12,520.63 2160.41,521.71 2160.66,522.66L2163.48,532.93C2163.85,534.26 2163.06,535.64 2161.73,536C2160.39,536.37 2159.02,535.58 2158.66,534.25L2155.83,523.94C2155.64,523.23 2155.5,522.71 2155.24,522.32L2151.04,516.04C2150.85,515.75 2150.66,515.44 2150.46,515.11C2150.2,514.67 2149.9,514.17 2149.68,513.94C2149.54,513.79 2149.17,513.56 2148.87,513.37C2148.61,513.2 2148.35,513.04 2148.11,512.87L2144.29,510.14C2143.93,509.88 2143.56,509.6 2143.2,509.31C2142.36,508.66 2141.49,507.98 2140.8,507.78L2131.68,505.06C2131.41,504.98 2131.14,504.89 2130.87,504.79C2130.47,504.65 2130.09,504.52 2129.81,504.48C2129.53,504.43 2129.13,504.44 2128.7,504.44C2128.41,504.44 2128.12,504.45 2127.84,504.44L2118.23,504.15C2116.53,504.1 2115.14,504.18 2113.72,504.41L2109.12,505.16C2108.05,505.33 2106.97,505.5 2105.9,505.66C2103.83,505.97 2101.69,506.3 2099.63,506.71C2097.67,507.1 2095.69,507.79 2093.59,508.51C2092.62,508.85 2091.64,509.18 2090.68,509.49L2081.49,512.39C2079.5,513.02 2077.54,513.95 2075.46,514.93C2074.54,515.37 2073.63,515.8 2072.71,516.2L2063.68,520.2C2060.88,521.44 2058.23,522.92 2055.43,524.48L2055.08,524.68C2053.45,525.59 2051.8,526.48 2050.16,527.37C2046.07,529.58 2041.84,531.86 2037.94,534.44L2021.24,545.52C2017.11,548.26 2013.04,551.43 2009.12,554.49C2007.85,555.48 2006.58,556.47 2005.3,557.45L1997.33,563.57C1995.62,564.88 1993.92,566.4 1992.28,567.88C1991.54,568.54 1990.81,569.2 1990.07,569.85L1982.41,576.54C1981.69,577.17 1980.97,577.79 1980.24,578.41C1978.45,579.94 1976.59,581.53 1974.91,583.19L1960.34,597.57C1957.91,599.97 1955.54,602.33 1953.32,604.81L1939.64,620.07C1937.4,622.57 1935.3,625.2 1933.17,627.91L1926.75,636.05C1926.08,636.9 1925.39,637.75 1924.71,638.59C1923.26,640.38 1921.76,642.23 1920.43,644.11C1917.76,647.88 1915.12,651.79 1912.56,655.58C1911.26,657.51 1909.95,659.44 1908.64,661.36C1905.63,665.76 1902.9,670.58 1900.25,675.23C1899.47,676.6 1898.7,677.97 1897.91,679.33C1896.09,682.49 1894.46,685.35 1893.02,688.46L1888.38,698.47C1886.96,701.53 1885.61,704.42 1884.56,707.54L1881.14,717.63C1880.97,718.14 1880.78,718.66 1880.59,719.17C1880.15,720.38 1879.74,721.52 1879.48,722.65C1879.23,723.72 1879.04,724.81 1878.83,725.96C1878.72,726.54 1878.62,727.12 1878.51,727.69L1876.45,738.36C1876.22,739.61 1875.17,740.44 1874,740.44Z" style="fill:rgb(38,199,255);fill-rule:nonzero;"/>
            </g>
            <g>
                <path d="M1873.51,717.28C1873.35,717.28 1873.2,717.27 1873.04,717.24C1871.68,716.98 1870.79,715.67 1871.05,714.32L1874.11,698.32C1874.39,696.86 1874.88,695.51 1875.35,694.21C1875.51,693.76 1875.68,693.31 1875.83,692.86L1879.47,682.01C1879.98,680.48 1880.5,678.91 1881.22,677.36L1888,662.62C1889.6,659.14 1891.44,655.87 1893.03,653.09C1893.88,651.6 1894.73,650.09 1895.57,648.58C1898.13,644.01 1900.78,639.28 1903.76,634.89L1915.41,617.72C1916.9,615.53 1918.54,613.47 1920.13,611.49C1920.71,610.77 1921.29,610.05 1921.86,609.32L1929.17,599.99C1931.05,597.58 1933,595.09 1935.08,592.76L1943.59,583.21C1947.56,578.74 1951.67,574.12 1956,569.84L1970.6,555.36C1974.11,551.88 1977.88,548.66 1981.52,545.55C1983.02,544.27 1984.51,542.99 1985.99,541.7C1986.79,541 1987.58,540.29 1988.37,539.57C1990.16,537.95 1992.01,536.27 1993.96,534.77L2001.95,528.63C2003.26,527.63 2004.56,526.61 2005.86,525.59C2009.83,522.49 2013.94,519.28 2018.2,516.45L2034.94,505.34C2039.08,502.59 2043.45,500.23 2047.69,497.95C2049.28,497.09 2050.87,496.23 2052.45,495.36L2052.93,495.09C2055.73,493.53 2058.62,491.92 2061.64,490.59L2070.69,486.6C2071.57,486.21 2072.44,485.8 2073.32,485.38C2075.47,484.37 2077.69,483.32 2080.01,482.59L2093.83,478.28C2094.25,478.15 2094.68,478 2095.11,477.86C2096.27,477.47 2097.47,477.06 2098.75,476.83C2100.92,476.43 2103.12,476.11 2105.24,475.79C2106.3,475.63 2107.36,475.47 2108.41,475.31L2113.21,474.55C2114.84,474.29 2116.47,474.22 2118.5,474.29L2128.12,474.66C2128.33,474.67 2128.55,474.66 2128.77,474.67C2129.38,474.67 2130.04,474.67 2130.76,474.79C2131.5,474.92 2132.18,475.16 2132.77,475.37C2133,475.45 2133.22,475.53 2133.45,475.6L2138.2,477.07C2138.69,477.22 2139.18,477.36 2139.68,477.51C2140.73,477.81 2141.82,478.13 2142.9,478.53C2144.3,479.05 2145.49,480.02 2146.54,480.87C2146.88,481.15 2147.22,481.42 2147.54,481.66L2151.53,484.58C2151.65,484.67 2151.78,484.76 2151.9,484.84C2152.51,485.26 2153.26,485.78 2153.88,486.62C2154.29,487.17 2154.64,487.72 2154.97,488.26C2155.12,488.5 2155.27,488.73 2155.42,488.97L2159.59,495.32C2160.28,496.37 2160.56,497.41 2160.8,498.33L2163.65,508.9C2164.01,510.23 2163.22,511.61 2161.89,511.97C2160.55,512.33 2159.18,511.54 2158.82,510.21L2155.96,499.61C2155.76,498.86 2155.64,498.42 2155.41,498.07L2151.24,491.72C2151.07,491.46 2150.9,491.2 2150.74,490.93C2150.44,490.45 2150.15,490 2149.86,489.6C2149.73,489.43 2149.38,489.19 2149.05,488.96C2148.89,488.85 2148.73,488.74 2148.57,488.62L2144.58,485.7C2144.19,485.41 2143.79,485.09 2143.38,484.76C2142.63,484.15 2141.77,483.46 2141.14,483.22C2140.23,482.88 2139.28,482.61 2138.27,482.31C2137.75,482.16 2137.22,482.01 2136.7,481.85L2131.95,480.38C2131.66,480.29 2131.37,480.19 2131.08,480.08C2130.63,479.92 2130.21,479.77 2129.89,479.72C2129.61,479.67 2129.2,479.67 2128.78,479.67C2128.49,479.67 2128.2,479.67 2127.91,479.66L2118.29,479.29C2116.57,479.22 2115.28,479.28 2113.97,479.49L2109.17,480.25C2108.1,480.42 2107.03,480.58 2105.96,480.74C2103.88,481.05 2101.72,481.37 2099.63,481.75C2098.71,481.92 2097.73,482.25 2096.7,482.6C2096.23,482.76 2095.77,482.91 2095.31,483.06L2081.49,487.37C2079.5,487.99 2077.53,488.92 2075.45,489.9C2074.53,490.33 2073.61,490.77 2072.7,491.17L2063.65,495.16C2060.84,496.4 2058.17,497.89 2055.35,499.46L2054.86,499.73C2053.27,500.62 2051.66,501.48 2050.05,502.35C2045.92,504.58 2041.64,506.89 2037.69,509.5L2020.95,520.61C2016.85,523.33 2012.82,526.48 2008.93,529.53C2007.62,530.56 2006.3,531.58 2004.99,532.6L1997,538.74C1995.21,540.12 1993.43,541.73 1991.71,543.28C1990.9,544.01 1990.09,544.75 1989.27,545.46C1987.78,546.77 1986.27,548.06 1984.75,549.35C1981.17,552.4 1977.47,555.56 1974.1,558.91L1959.5,573.39C1955.29,577.57 1951.23,582.13 1947.31,586.54L1938.79,596.09C1936.82,598.3 1934.92,600.73 1933.09,603.08L1925.78,612.41C1925.2,613.15 1924.61,613.89 1924.02,614.62C1922.49,616.53 1920.91,618.5 1919.53,620.53L1907.88,637.7C1905.02,641.92 1902.42,646.55 1899.92,651.03C1899.07,652.55 1898.22,654.07 1897.36,655.58C1895.82,658.27 1894.05,661.41 1892.54,664.71L1885.76,679.45C1885.16,680.75 1884.7,682.13 1884.22,683.59L1880.58,694.45C1880.42,694.93 1880.24,695.42 1880.06,695.91C1879.64,697.08 1879.23,698.19 1879.03,699.26L1875.97,715.26C1875.73,716.44 1874.68,717.28 1873.51,717.28Z" style="fill:rgb(38,208,255);fill-rule:nonzero;"/>
            </g>
            <g>
                <path d="M1873.05,693.83C1872.9,693.83 1872.74,693.82 1872.58,693.79C1871.22,693.53 1870.33,692.23 1870.59,690.87L1873.63,674.83C1873.91,673.34 1874.39,671.96 1874.86,670.64C1875,670.23 1875.15,669.82 1875.28,669.41L1878.71,659.09C1878.83,658.72 1878.95,658.36 1879.07,657.99C1879.51,656.62 1879.97,655.21 1880.59,653.83L1887.26,639.21C1887.47,638.75 1887.67,638.29 1887.87,637.83C1888.39,636.65 1888.92,635.43 1889.57,634.25C1890.16,633.16 1890.78,632.09 1891.4,631.02L1892.3,629.44C1893.22,627.83 1894.12,626.2 1895.02,624.57C1897.56,619.99 1900.18,615.25 1903.14,610.86L1914.93,593.35C1916.45,591.09 1918.14,588.97 1919.77,586.91C1920.33,586.21 1920.88,585.51 1921.43,584.81L1928.95,575.15C1930.71,572.87 1932.53,570.52 1934.48,568.32L1943.29,558.38C1947.25,553.9 1951.35,549.27 1955.66,544.98L1970.17,530.53C1973.75,526.96 1977.54,523.71 1981.2,520.57C1982.67,519.31 1984.13,518.06 1985.58,516.78C1986.4,516.06 1987.21,515.32 1988.03,514.59C1989.76,513.03 1991.55,511.41 1993.41,509.92C1995.19,508.49 1997.01,507.1 1998.78,505.76C1999.67,505.08 2000.57,504.4 2001.45,503.72C2002.81,502.67 2004.16,501.61 2005.51,500.55C2009.53,497.4 2013.69,494.14 2018,491.27L2034.68,480.19C2038.83,477.44 2043.21,475.07 2047.45,472.78C2049.01,471.94 2050.56,471.1 2052.1,470.25L2053.26,469.61C2055.8,468.19 2058.42,466.73 2061.16,465.53L2070.06,461.62C2071.02,461.2 2071.97,460.76 2072.93,460.31C2075,459.35 2077.13,458.35 2079.33,457.58C2081.46,456.83 2083.62,456.2 2085.72,455.58C2086.76,455.27 2087.8,454.97 2088.84,454.65C2089.84,454.34 2090.84,454.01 2091.85,453.67C2093.92,452.98 2096.07,452.26 2098.25,451.76C2100.51,451.24 2102.82,450.95 2105.04,450.67C2106.11,450.54 2107.18,450.4 2108.24,450.24L2113.05,449.51C2114.79,449.25 2116.47,449.16 2118.36,449.25L2128.19,449.71C2128.4,449.72 2128.62,449.72 2128.84,449.72C2129.44,449.72 2130.12,449.73 2130.83,449.86C2131.57,449.99 2132.25,450.24 2132.85,450.47C2133.08,450.55 2133.31,450.64 2133.53,450.71L2138.29,452.24C2138.78,452.4 2139.28,452.55 2139.77,452.7C2140.82,453.02 2141.91,453.35 2143,453.76C2144.4,454.3 2145.59,455.29 2146.64,456.16C2146.98,456.44 2147.32,456.72 2147.65,456.97L2151.65,459.97C2151.77,460.06 2151.89,460.15 2152.02,460.24C2152.7,460.72 2153.54,461.32 2154.19,462.35L2159.83,471.1C2160.45,472.07 2160.71,473.1 2160.91,473.92L2161.03,474.4L2163.77,484.72C2164.12,486.05 2163.33,487.42 2162,487.78C2160.67,488.14 2159.3,487.34 2158.94,486.01L2156.2,475.69C2156.15,475.5 2156.1,475.31 2156.06,475.12C2155.93,474.58 2155.8,474.08 2155.63,473.81L2149.99,465.06C2149.85,464.84 2149.51,464.6 2149.11,464.31C2148.96,464.2 2148.8,464.09 2148.65,463.98L2144.65,460.98C2144.26,460.69 2143.86,460.36 2143.45,460.02C2142.69,459.39 2141.84,458.68 2141.2,458.44C2140.29,458.09 2139.34,457.8 2138.33,457.5C2137.8,457.34 2137.28,457.18 2136.76,457.02L2132,455.49C2131.71,455.4 2131.42,455.29 2131.12,455.18C2130.67,455.02 2130.25,454.86 2129.94,454.8C2129.66,454.75 2129.25,454.75 2128.82,454.74C2128.53,454.74 2128.24,454.74 2127.95,454.72L2118.11,454.26C2116.55,454.19 2115.22,454.25 2113.79,454.47L2108.98,455.2C2107.88,455.37 2106.77,455.51 2105.66,455.65C2103.46,455.93 2101.38,456.19 2099.36,456.65C2097.41,457.1 2095.48,457.74 2093.43,458.43C2092.39,458.78 2091.35,459.13 2090.31,459.45C2089.26,459.77 2088.19,460.09 2087.13,460.4C2085.09,461 2082.99,461.62 2080.99,462.32C2079.02,463.01 2077,463.95 2075.04,464.86C2074.05,465.32 2073.06,465.78 2072.07,466.21L2063.17,470.12C2060.64,471.23 2058.24,472.57 2055.7,473.99L2054.53,474.64C2052.97,475.51 2051.4,476.35 2049.82,477.2C2045.68,479.43 2041.39,481.74 2037.44,484.37L2020.76,495.45C2016.61,498.21 2012.53,501.41 2008.58,504.5C2007.22,505.57 2005.85,506.64 2004.48,507.7C2003.58,508.39 2002.68,509.08 2001.78,509.76C2000.04,511.08 1998.24,512.45 1996.52,513.83C1994.77,515.23 1993.04,516.8 1991.36,518.32C1990.53,519.07 1989.7,519.82 1988.86,520.55C1987.4,521.84 1985.92,523.1 1984.44,524.38C1980.85,527.46 1977.13,530.65 1973.74,534.03L1959.17,548.54C1954.97,552.72 1950.93,557.29 1947.02,561.71L1938.2,571.66C1936.36,573.74 1934.59,576.02 1932.88,578.23L1925.35,587.91C1924.79,588.63 1924.23,589.34 1923.66,590.05C1922.09,592.03 1920.47,594.07 1919.05,596.17L1907.25,613.68C1904.41,617.89 1901.84,622.53 1899.36,627.02C1898.45,628.67 1897.54,630.31 1896.61,631.94L1895.69,633.54C1895.09,634.58 1894.49,635.63 1893.91,636.69C1893.37,637.67 1892.9,638.74 1892.41,639.87C1892.2,640.36 1891.99,640.84 1891.77,641.32L1885.1,655.94C1884.59,657.05 1884.2,658.27 1883.79,659.55C1883.67,659.93 1883.54,660.32 1883.42,660.7L1879.99,671.03C1879.85,671.46 1879.69,671.9 1879.54,672.34C1879.12,673.55 1878.71,674.68 1878.5,675.8L1875.46,691.84C1875.28,692.99 1874.23,693.83 1873.05,693.83Z" style="fill:rgb(38,217,255);fill-rule:nonzero;"/>
            </g>
            <g>
                <path d="M1872.6,670.28C1872.45,670.28 1872.29,670.27 1872.14,670.24C1870.78,669.99 1869.89,668.68 1870.14,667.32L1873.19,651.06C1873.48,649.51 1873.98,648.08 1874.46,646.7C1874.61,646.26 1874.77,645.82 1874.91,645.38L1878.61,634.13C1879.09,632.65 1879.58,631.11 1880.26,629.62L1886.94,614.83C1887.14,614.39 1887.33,613.94 1887.53,613.49C1888.06,612.27 1888.6,611.01 1889.28,609.8L1891.96,605.05C1892.88,603.41 1893.79,601.75 1894.7,600.1C1897.18,595.57 1899.75,590.89 1902.65,586.55L1914.59,568.71C1916.09,566.46 1917.76,564.36 1919.36,562.32C1919.9,561.64 1920.44,560.95 1920.97,560.26L1928.67,550.31C1930.41,548.04 1932.22,545.69 1934.16,543.49L1943.22,533.22C1947.03,528.88 1950.97,524.4 1955.13,520.24L1969.87,505.5C1973.42,501.94 1977.25,498.65 1980.94,495.46C1982.38,494.22 1983.82,492.98 1985.24,491.72C1986.09,490.97 1986.94,490.21 1987.78,489.44C1989.48,487.9 1991.24,486.32 1993.05,484.83C1994.87,483.33 1996.75,481.91 1998.57,480.53C1999.48,479.84 2000.39,479.16 2001.29,478.46C2002.67,477.4 2004.04,476.31 2005.42,475.23C2009.38,472.12 2013.47,468.89 2017.72,466.07L2034.6,454.86C2038.75,452.1 2043.15,449.74 2047.4,447.45C2048.96,446.61 2050.52,445.77 2052.07,444.91L2053.24,444.26C2055.78,442.85 2058.4,441.39 2061.15,440.19L2070.25,436.22C2071.18,435.81 2072.11,435.38 2073.05,434.95C2075.09,434.01 2077.19,433.03 2079.36,432.28C2081.49,431.54 2083.67,430.91 2085.78,430.3C2086.82,430 2087.86,429.7 2088.89,429.38C2089.87,429.08 2090.85,428.75 2091.84,428.42C2094.02,427.69 2096.26,426.94 2098.57,426.48C2100.77,426.05 2102.99,425.76 2105.15,425.48C2106.21,425.34 2107.26,425.21 2108.31,425.06L2113.02,424.37C2114.86,424.1 2116.53,424.02 2118.29,424.12L2128.15,424.67C2128.38,424.68 2128.61,424.69 2128.84,424.69C2129.4,424.7 2130.04,424.72 2130.69,424.82C2131.57,424.95 2132.35,425.24 2133.04,425.49C2133.26,425.57 2133.48,425.65 2133.69,425.72L2142.86,428.78C2144.41,429.3 2145.7,430.39 2146.83,431.36C2147.17,431.65 2147.5,431.93 2147.82,432.18L2151.83,435.25C2151.95,435.34 2152.08,435.44 2152.21,435.53C2152.81,435.97 2153.56,436.51 2154.17,437.37C2154.6,437.97 2154.98,438.59 2155.34,439.18C2155.5,439.45 2155.67,439.72 2155.83,439.98L2160.01,446.58C2160.63,447.56 2160.88,448.6 2161.08,449.43L2161.2,449.92L2163.95,460.42C2164.3,461.75 2163.5,463.12 2162.16,463.47C2160.83,463.81 2159.46,463.02 2159.11,461.68L2156.36,451.18C2156.31,450.99 2156.26,450.79 2156.22,450.6C2156.09,450.05 2155.96,449.53 2155.78,449.25L2151.6,442.64C2151.42,442.35 2151.24,442.06 2151.06,441.76C2150.73,441.22 2150.42,440.71 2150.1,440.26C2149.96,440.07 2149.61,439.81 2149.26,439.56C2149.1,439.44 2148.94,439.32 2148.78,439.2L2144.77,436.13C2144.38,435.83 2143.99,435.5 2143.58,435.15C2142.79,434.48 2141.9,433.72 2141.26,433.51L2132.09,430.45C2131.82,430.36 2131.55,430.26 2131.28,430.16C2130.78,429.97 2130.3,429.8 2129.94,429.74C2129.58,429.69 2129.14,429.68 2128.68,429.66C2128.4,429.65 2128.12,429.65 2127.84,429.63L2117.98,429.08C2116.55,429 2115.23,429.06 2113.71,429.29L2109,429.98C2107.92,430.14 2106.84,430.28 2105.76,430.42C2103.69,430.69 2101.55,430.96 2099.51,431.36C2097.52,431.75 2095.52,432.42 2093.4,433.13C2092.37,433.48 2091.34,433.82 2090.32,434.13C2089.27,434.45 2088.21,434.76 2087.15,435.06C2085.11,435.65 2082.99,436.26 2080.98,436.96C2079.04,437.63 2077.05,438.55 2075.13,439.45C2074.16,439.9 2073.2,440.35 2072.23,440.77L2063.13,444.74C2060.6,445.84 2058.2,447.18 2055.66,448.6L2054.48,449.26C2052.92,450.13 2051.34,450.98 2049.76,451.83C2045.61,454.06 2041.32,456.37 2037.36,459L2020.48,470.21C2016.39,472.93 2012.38,476.08 2008.5,479.14C2007.11,480.23 2005.73,481.32 2004.34,482.4C2003.42,483.11 2002.5,483.8 2001.57,484.5C1999.79,485.84 1997.95,487.23 1996.22,488.66C1994.5,490.08 1992.78,491.63 1991.12,493.13C1990.26,493.91 1989.4,494.68 1988.54,495.44C1987.1,496.71 1985.65,497.96 1984.2,499.21C1980.57,502.34 1976.82,505.57 1973.4,509L1958.66,523.74C1954.62,527.78 1950.73,532.2 1946.98,536.48L1937.92,546.76C1936.09,548.83 1934.34,551.11 1932.65,553.32L1924.94,563.29C1924.4,563.99 1923.85,564.69 1923.3,565.38C1921.75,567.34 1920.15,569.37 1918.76,571.45L1906.82,589.29C1904.04,593.45 1901.53,598.03 1899.1,602.47C1898.18,604.15 1897.26,605.82 1896.33,607.47L1893.65,612.22C1893.1,613.2 1892.63,614.29 1892.13,615.44C1891.92,615.91 1891.72,616.39 1891.51,616.85L1884.83,631.64C1884.27,632.88 1883.84,634.21 1883.38,635.63L1883.05,636.66L1879.67,646.91C1879.52,647.38 1879.35,647.85 1879.19,648.32C1878.75,649.58 1878.33,650.78 1878.11,651.95L1875.06,668.21C1874.83,669.44 1873.78,670.28 1872.6,670.28Z" style="fill:rgb(40,226,255);fill-rule:nonzero;"/>
            </g>
            <g>
                <path d="M1872.15,646.64C1872,646.64 1871.85,646.63 1871.69,646.6C1870.33,646.35 1869.44,645.04 1869.69,643.69L1872.71,627.4C1873,625.85 1873.48,624.43 1873.95,623.05C1874.07,622.69 1874.2,622.32 1874.31,621.96L1877.69,611.6C1877.85,611.12 1877.99,610.64 1878.14,610.15C1878.55,608.81 1878.97,607.43 1879.57,606.1L1886.23,591.24C1886.47,590.71 1886.7,590.17 1886.93,589.64C1887.4,588.56 1887.89,587.44 1888.42,586.35C1889.01,585.13 1889.68,583.97 1890.33,582.86C1890.61,582.38 1890.89,581.9 1891.16,581.41L1896.42,572C1896.78,571.35 1897.14,570.7 1897.5,570.04C1898.88,567.55 1900.3,564.97 1901.91,562.54L1913.8,544.65C1916.69,540.3 1919.95,536.18 1923.09,532.19C1924.32,530.63 1925.55,529.07 1926.76,527.5C1927.28,526.82 1927.8,526.14 1928.31,525.46C1929.94,523.31 1931.62,521.09 1933.44,519.02L1940.38,511.12C1941.23,510.15 1942.09,509.17 1942.94,508.2C1946.66,503.93 1950.51,499.52 1954.57,495.43L1969.49,480.45C1973.11,476.81 1977,473.45 1980.76,470.19C1982.19,468.95 1983.62,467.71 1985.04,466.46C1985.89,465.7 1986.74,464.93 1987.59,464.17C1989.3,462.63 1991.06,461.03 1992.86,459.54C1994.65,458.06 1996.52,456.65 1998.32,455.29C1999.22,454.61 2000.12,453.93 2001.01,453.24C2002.41,452.16 2003.79,451.07 2005.18,449.97C2009.17,446.82 2013.3,443.56 2017.59,440.71L2034.5,429.47C2038.69,426.68 2043.14,424.3 2047.43,421.99C2049.02,421.14 2050.6,420.29 2052.17,419.42L2053.04,418.94C2055.68,417.47 2058.41,415.96 2061.28,414.71L2070.4,410.75C2071.3,410.36 2072.21,409.93 2073.12,409.51C2075.33,408.48 2077.62,407.41 2080,406.7L2094.08,402.48C2094.47,402.36 2094.87,402.23 2095.26,402.11C2096.54,401.7 2097.86,401.27 2099.29,401.07L2113.83,399.04C2115.63,398.79 2117.23,398.86 2119.13,398.98L2129.01,399.61C2131.84,399.79 2134.45,400.78 2136.99,401.74C2137.71,402.01 2138.42,402.28 2139.13,402.53C2139.52,402.66 2139.94,402.78 2140.36,402.91C2141.68,403.29 2143.18,403.72 2144.46,404.62C2145.46,405.32 2146.4,406.08 2147.3,406.82C2147.73,407.17 2148.16,407.52 2148.6,407.86L2152.48,410.9C2153.21,411.47 2153.97,412.12 2154.69,413.28L2158.96,420.14C2159.1,420.36 2159.25,420.58 2159.4,420.81C2159.76,421.35 2160.17,421.96 2160.51,422.65C2160.91,423.48 2161.11,424.35 2161.28,425.11C2161.33,425.34 2161.38,425.56 2161.44,425.77L2164.11,436.1C2164.45,437.44 2163.65,438.8 2162.31,439.15C2160.97,439.49 2159.61,438.69 2159.26,437.35L2156.59,427.02C2156.52,426.75 2156.46,426.48 2156.4,426.19C2156.28,425.67 2156.16,425.13 2156.02,424.83C2155.83,424.45 2155.55,424.03 2155.25,423.58C2155.07,423.31 2154.89,423.04 2154.72,422.77L2150.45,415.91C2150.18,415.48 2149.94,415.25 2149.4,414.82L2145.52,411.78C2145.06,411.42 2144.61,411.05 2144.15,410.68C2143.27,409.96 2142.44,409.29 2141.59,408.69C2140.99,408.27 2139.97,407.98 2138.98,407.69C2138.46,407.54 2137.96,407.4 2137.49,407.23C2136.74,406.97 2135.98,406.68 2135.22,406.4C2132.93,405.54 2130.77,404.72 2128.69,404.59L2118.81,403.96C2117.14,403.85 2115.86,403.79 2114.52,403.98L2099.98,406.01C2098.98,406.15 2097.92,406.49 2096.8,406.85C2096.37,406.99 2095.95,407.13 2095.52,407.25L2081.44,411.47C2079.4,412.08 2077.28,413.07 2075.24,414.02C2074.29,414.46 2073.34,414.9 2072.4,415.31L2063.28,419.27C2060.64,420.42 2058.13,421.81 2055.48,423.28L2054.61,423.76C2053.02,424.64 2051.42,425.5 2049.81,426.36C2045.62,428.61 2041.28,430.94 2037.28,433.6L2020.37,444.84C2016.25,447.58 2012.2,450.77 2008.29,453.86C2006.89,454.97 2005.49,456.07 2004.08,457.16C2003.18,457.86 2002.26,458.55 2001.35,459.24C1999.59,460.57 1997.77,461.94 1996.07,463.36C1994.35,464.79 1992.63,466.34 1990.96,467.85C1990.1,468.63 1989.23,469.41 1988.36,470.18C1986.93,471.45 1985.48,472.7 1984.04,473.95C1980.35,477.15 1976.53,480.45 1973.04,483.96L1958.12,498.94C1954.17,502.9 1950.38,507.26 1946.71,511.46C1945.86,512.44 1945,513.42 1944.14,514.4L1937.2,522.3C1935.5,524.24 1933.87,526.38 1932.3,528.46C1931.78,529.15 1931.25,529.84 1930.72,530.53C1929.5,532.12 1928.25,533.69 1927.01,535.27C1923.93,539.17 1920.74,543.21 1917.96,547.39L1906.07,565.28C1904.57,567.54 1903.2,570.02 1901.87,572.43C1901.5,573.09 1901.14,573.75 1900.77,574.41L1895.51,583.82C1895.23,584.32 1894.94,584.83 1894.65,585.33C1894.02,586.42 1893.43,587.44 1892.92,588.5C1892.43,589.51 1891.99,590.53 1891.51,591.61C1891.27,592.16 1891.03,592.71 1890.79,593.25L1884.13,608.11C1883.66,609.16 1883.3,610.33 1882.92,611.58C1882.76,612.1 1882.61,612.61 1882.44,613.12L1879.06,623.48C1878.93,623.86 1878.81,624.24 1878.68,624.62C1878.25,625.89 1877.85,627.08 1877.62,628.28L1874.6,644.57C1874.38,645.8 1873.33,646.64 1872.15,646.64Z" style="fill:rgb(40,234,255);fill-rule:nonzero;"/>
            </g>
            <g>
                <path d="M1871.7,622.9C1871.55,622.9 1871.4,622.89 1871.24,622.86C1869.88,622.61 1868.98,621.31 1869.23,619.95L1872.27,603.44C1872.57,601.83 1873.07,600.35 1873.55,598.91C1873.68,598.52 1873.81,598.13 1873.94,597.73L1877.33,587.25C1877.47,586.8 1877.61,586.35 1877.75,585.9C1878.18,584.52 1878.62,583.09 1879.23,581.7L1885.91,566.67C1886.14,566.14 1886.37,565.61 1886.6,565.08C1887.08,563.97 1887.57,562.82 1888.12,561.7C1888.69,560.54 1889.33,559.44 1889.95,558.37C1890.24,557.86 1890.54,557.35 1890.83,556.83L1896.01,547.49C1896.38,546.83 1896.74,546.16 1897.1,545.5C1898.49,542.97 1899.92,540.35 1901.55,537.88L1913.35,520C1916.26,515.59 1919.53,511.42 1922.69,507.39C1923.9,505.85 1925.1,504.31 1926.29,502.76C1926.86,502.01 1927.43,501.25 1928,500.49C1929.55,498.42 1931.15,496.28 1932.89,494.29L1939.98,486.18C1940.86,485.17 1941.74,484.16 1942.62,483.14C1946.35,478.84 1950.21,474.38 1954.29,470.27L1968.88,455.55C1972.61,451.78 1976.62,448.29 1980.5,444.91C1981.86,443.73 1983.22,442.54 1984.56,441.35C1985.41,440.59 1986.26,439.83 1987.11,439.07C1988.85,437.51 1990.6,435.95 1992.36,434.42C1994.23,432.8 1996.21,431.31 1998.12,429.88C1998.99,429.23 1999.86,428.58 2000.71,427.91C2002.15,426.79 2003.59,425.65 2005.03,424.51C2008.93,421.42 2012.95,418.22 2017.15,415.43L2034.26,404.05C2038.54,401.2 2043.07,398.77 2047.45,396.42C2049.02,395.58 2050.58,394.74 2052.13,393.88L2053,393.4C2055.65,391.93 2058.39,390.41 2061.26,389.17L2070.4,385.22C2071.3,384.83 2072.21,384.41 2073.12,383.99C2075.34,382.96 2077.63,381.9 2080.03,381.19L2094.33,376.96C2094.71,376.85 2095.08,376.73 2095.46,376.61C2096.7,376.22 2097.98,375.81 2099.37,375.62L2113.94,373.67C2115.91,373.41 2117.75,373.54 2119.37,373.66L2129.44,374.38C2130.19,374.42 2131.13,374.48 2132.11,374.83L2139.29,377.4C2139.69,377.54 2140.12,377.67 2140.56,377.8C2141.77,378.16 2143.15,378.57 2144.37,379.35C2145.46,380.05 2146.44,380.88 2147.38,381.69C2147.8,382.05 2148.21,382.41 2148.63,382.74L2152.67,385.98C2153.39,386.56 2154.16,387.23 2154.88,388.4L2159.16,395.39C2159.3,395.61 2159.44,395.83 2159.58,396.06C2159.91,396.58 2160.25,397.11 2160.54,397.66C2161.05,398.6 2161.28,399.59 2161.47,400.47C2161.52,400.69 2161.57,400.91 2161.62,401.12L2164.29,411.62C2164.63,412.96 2163.82,414.32 2162.48,414.66C2161.14,415 2159.78,414.19 2159.44,412.85L2156.77,402.35C2156.71,402.1 2156.65,401.84 2156.59,401.57C2156.46,400.99 2156.32,400.38 2156.14,400.05C2155.9,399.6 2155.62,399.18 2155.35,398.75C2155.19,398.5 2155.04,398.26 2154.89,398.01L2150.61,391.02C2150.34,390.58 2150.09,390.34 2149.54,389.9L2145.5,386.66C2145.04,386.29 2144.58,385.89 2144.11,385.5C2143.26,384.77 2142.46,384.08 2141.67,383.58C2141.04,383.18 2140.07,382.89 2139.12,382.61C2138.59,382.45 2138.08,382.3 2137.6,382.13L2130.42,379.56C2130.12,379.45 2129.67,379.43 2129.15,379.4L2128.64,379.37L2119,378.67C2117.48,378.56 2116.05,378.46 2114.6,378.65L2100.03,380.6C2099.07,380.73 2098.05,381.05 2096.98,381.4C2096.57,381.53 2096.16,381.66 2095.76,381.78L2081.46,386.01C2079.42,386.61 2077.29,387.6 2075.24,388.55C2074.29,388.99 2073.34,389.43 2072.4,389.84L2063.26,393.79C2060.61,394.93 2058.1,396.33 2055.44,397.8L2054.57,398.28C2053,399.15 2051.42,400 2049.83,400.85C2045.55,403.15 2041.12,405.52 2037.04,408.24L2019.93,419.62C2015.91,422.29 2011.97,425.42 2008.15,428.45C2006.7,429.6 2005.24,430.76 2003.78,431.89C2002.9,432.57 2002.02,433.24 2001.13,433.9C1999.29,435.28 1997.38,436.71 1995.65,438.22C1993.9,439.74 1992.18,441.28 1990.45,442.82C1989.6,443.58 1988.74,444.35 1987.89,445.11C1986.53,446.32 1985.16,447.51 1983.8,448.7C1979.99,452.02 1976.05,455.46 1972.45,459.09L1957.86,473.81C1953.9,477.8 1950.1,482.19 1946.42,486.44C1945.54,487.46 1944.65,488.48 1943.77,489.49L1936.68,497.6C1935.07,499.45 1933.52,501.51 1932.03,503.51C1931.45,504.28 1930.87,505.05 1930.29,505.82C1929.09,507.39 1927.88,508.94 1926.66,510.49C1923.56,514.45 1920.35,518.54 1917.56,522.77L1905.76,540.65C1904.24,542.95 1902.86,545.47 1901.53,547.91C1901.16,548.58 1900.79,549.25 1900.42,549.92L1895.24,559.26C1894.94,559.8 1894.63,560.33 1894.33,560.87C1893.73,561.92 1893.16,562.91 1892.66,563.92C1892.17,564.92 1891.72,565.95 1891.25,567.05C1891.01,567.6 1890.78,568.16 1890.53,568.7L1883.85,583.73C1883.36,584.84 1882.98,586.07 1882.58,587.37C1882.43,587.84 1882.29,588.32 1882.14,588.79L1878.75,599.27C1878.62,599.68 1878.48,600.09 1878.34,600.51C1877.89,601.84 1877.47,603.09 1877.24,604.35L1874.2,620.86C1873.93,622.05 1872.88,622.9 1871.7,622.9Z" style="fill:rgb(40,234,255);fill-rule:nonzero;"/>
            </g>
            <g>
                <path d="M1871.25,599.06C1871.1,599.06 1870.95,599.05 1870.8,599.02C1869.44,598.77 1868.54,597.47 1868.79,596.11L1871.76,579.78C1872.07,578.06 1872.58,576.48 1873.08,574.95L1876.61,563.92C1876.8,563.34 1876.98,562.75 1877.16,562.17C1877.53,560.98 1877.9,559.75 1878.34,558.55C1878.79,557.3 1879.33,556.12 1879.86,554.98C1880.08,554.5 1880.3,554.02 1880.52,553.54C1881.21,551.96 1881.9,550.38 1882.58,548.78C1884.73,543.77 1886.95,538.58 1889.62,533.74L1894.82,524.3C1895.36,523.33 1895.88,522.34 1896.4,521.34C1897.56,519.14 1898.76,516.87 1900.12,514.74C1902.7,510.7 1905.37,506.65 1907.96,502.74C1909.27,500.75 1910.59,498.77 1911.89,496.78C1915.07,491.92 1918.61,487.32 1922.03,482.86C1922.88,481.75 1923.74,480.63 1924.59,479.52L1931.03,471.05C1932.57,469.02 1934.26,467.13 1935.9,465.31C1936.6,464.53 1937.29,463.76 1937.97,462.98C1939.32,461.43 1940.65,459.85 1941.98,458.27C1945.14,454.53 1948.41,450.66 1951.88,447.14L1966.5,432.32C1968.84,429.95 1971.37,427.43 1974.08,425.02L1989.46,411.32C1992.16,408.91 1994.94,406.71 1997.53,404.7L2013.75,392.1C2015.74,390.55 2017.85,389.19 2019.89,387.88C2020.71,387.35 2021.54,386.82 2022.35,386.28L2031.29,380.33C2033.96,378.55 2036.73,376.71 2039.63,375.11C2041.22,374.23 2042.84,373.99 2044.27,373.78C2044.55,373.74 2044.82,373.7 2045.1,373.65L2145.47,357.17C2145.86,357.07 2146.45,356.93 2147.13,357.01C2148.22,357.14 2148.94,357.78 2149.37,358.16L2149.53,358.3L2153.43,361.5C2154.71,362.55 2155.54,364.09 2156.27,365.46C2156.48,365.86 2156.69,366.24 2156.9,366.59L2159.55,371C2159.66,371.18 2159.78,371.36 2159.9,371.55C2160.31,372.19 2160.78,372.91 2161.09,373.78C2161.34,374.5 2161.51,375.23 2161.65,375.88C2161.71,376.16 2161.77,376.43 2161.84,376.7L2164.43,387.04C2164.77,388.38 2163.95,389.74 2162.61,390.07C2161.27,390.41 2159.91,389.59 2159.58,388.25L2156.99,377.91C2156.91,377.59 2156.84,377.27 2156.77,376.94C2156.65,376.39 2156.54,375.87 2156.39,375.45C2156.28,375.14 2155.99,374.7 2155.72,374.27C2155.57,374.04 2155.42,373.8 2155.28,373.58L2152.62,369.17C2152.37,368.76 2152.13,368.3 2151.87,367.83C2151.38,366.92 2150.78,365.79 2150.27,365.37L2146.37,362.17C2146.35,362.15 2146.33,362.13 2146.3,362.11C2146.24,362.12 2146.18,362.13 2146.13,362.14L2045.93,378.58C2045.62,378.63 2045.32,378.68 2045.01,378.72C2043.85,378.89 2042.86,379.04 2042.06,379.48C2039.35,380.98 2036.79,382.68 2034.08,384.48L2025.14,390.43C2024.31,390.98 2023.46,391.53 2022.62,392.07C2020.67,393.32 2018.66,394.62 2016.84,396.03L2000.62,408.63C1998.09,410.59 1995.4,412.73 1992.8,415.04L1977.42,428.74C1974.82,431.05 1972.36,433.51 1970.08,435.82L1955.46,450.64C1952.12,454.02 1948.92,457.82 1945.82,461.48C1944.47,463.08 1943.12,464.67 1941.76,466.24C1941.06,467.04 1940.35,467.83 1939.64,468.63C1938.07,470.38 1936.45,472.19 1935.03,474.06L1928.59,482.53C1927.74,483.65 1926.88,484.77 1926.02,485.89C1922.66,490.27 1919.18,494.8 1916.1,499.5C1914.79,501.5 1913.47,503.49 1912.15,505.48C1909.57,509.38 1906.91,513.4 1904.35,517.41C1903.1,519.37 1901.95,521.55 1900.84,523.66C1900.3,524.68 1899.76,525.69 1899.22,526.69L1894.02,536.13C1891.47,540.76 1889.3,545.83 1887.2,550.73C1886.51,552.34 1885.82,553.94 1885.12,555.53C1884.9,556.04 1884.66,556.55 1884.43,557.05C1883.93,558.14 1883.45,559.17 1883.07,560.21C1882.68,561.31 1882.33,562.43 1881.97,563.61C1881.78,564.21 1881.6,564.82 1881.41,565.42L1877.87,576.46C1877.41,577.89 1876.97,579.25 1876.71,580.64L1873.73,596.98C1873.49,598.21 1872.43,599.06 1871.25,599.06Z" style="fill:rgb(40,243,255);fill-rule:nonzero;"/>
            </g>
            <g>
                <path d="M1870.8,575.12C1870.65,575.12 1870.5,575.11 1870.35,575.08C1868.99,574.83 1868.09,573.54 1868.33,572.18L1871.2,556.27C1871.58,554.14 1872.18,552.18 1872.71,550.51C1873.21,548.93 1873.7,547.34 1874.18,545.76C1875.76,540.6 1877.38,535.27 1879.57,530.26L1883.85,520.47C1884.16,519.76 1884.47,519.04 1884.78,518.32C1885.88,515.75 1887.02,513.09 1888.4,510.57L1898.41,492.26C1899.78,489.76 1901.34,487.4 1902.84,485.12C1903.26,484.48 1903.68,483.84 1904.1,483.2L1909.59,474.77C1910.01,474.12 1910.43,473.47 1910.85,472.81C1912.32,470.53 1913.83,468.17 1915.51,465.95L1921.74,457.71C1922.54,456.65 1923.33,455.59 1924.13,454.53C1927.36,450.22 1930.7,445.76 1934.28,441.61L1947.5,426.32C1951.05,422.21 1954.89,418.35 1958.6,414.62C1959.67,413.54 1960.74,412.47 1961.8,411.39L1968.7,404.37C1970.86,402.17 1973.15,400.13 1975.36,398.16L1991.37,383.85C1993.18,382.24 1995.09,380.78 1996.94,379.38C1997.64,378.85 1998.34,378.32 1999.03,377.78C1999.28,377.59 1999.54,377.36 1999.8,377.13C2000.89,376.18 2002.24,375.01 2003.97,374.72L2008.8,373.92C2031.35,370.21 2055.9,366.2 2083.87,361.66C2093.02,360.18 2102.17,358.71 2111.32,357.25L2158.36,349.7C2160.34,349.38 2161.58,350.2 2162.04,352.13L2162.08,352.3L2164.57,362.37C2164.9,363.71 2164.08,365.07 2162.74,365.4C2161.4,365.73 2160.04,364.91 2159.71,363.57L2157.56,354.89L2112.1,362.18C2102.95,363.64 2093.81,365.11 2084.67,366.59C2056.71,371.13 2032.16,375.14 2009.62,378.85L2004.79,379.65C2004.43,379.72 2003.56,380.49 2003.09,380.9C2002.75,381.19 2002.42,381.48 2002.11,381.72C2001.41,382.27 2000.69,382.81 1999.98,383.35C1998.21,384.7 1996.38,386.09 1994.72,387.57L1978.71,401.88C1976.46,403.89 1974.33,405.78 1972.29,407.86L1965.39,414.88C1964.32,415.97 1963.24,417.05 1962.17,418.13C1958.52,421.8 1954.75,425.59 1951.31,429.57L1938.09,444.86C1934.62,448.87 1931.33,453.26 1928.15,457.51C1927.35,458.58 1926.55,459.64 1925.75,460.7L1919.52,468.94C1917.96,471.01 1916.49,473.29 1915.08,475.49C1914.65,476.15 1914.23,476.82 1913.8,477.47L1908.31,485.9C1907.89,486.55 1907.46,487.2 1907.03,487.85C1905.51,490.14 1904.08,492.31 1902.81,494.63L1892.8,512.94C1891.54,515.25 1890.5,517.68 1889.39,520.26C1889.08,520.99 1888.77,521.72 1888.45,522.44L1884.17,532.23C1882.09,536.98 1880.51,542.17 1878.97,547.19C1878.48,548.8 1877.99,550.4 1877.48,552C1876.86,553.94 1876.42,555.47 1876.12,557.13L1873.25,573.04C1873.04,574.27 1871.99,575.12 1870.8,575.12Z" style="fill:rgb(41,252,255);fill-rule:nonzero;"/>
            </g>
            <g>
                <path d="M1870.35,551.09C1870.2,551.09 1870.06,551.08 1869.91,551.05C1868.55,550.81 1867.65,549.51 1867.89,548.15L1869.71,537.94C1869.84,537.22 1869.96,536.5 1870.08,535.78C1870.54,533.06 1871.01,530.24 1871.87,527.5L1874.96,517.69C1875.21,516.89 1875.45,516.09 1875.7,515.28C1876.45,512.77 1877.23,510.18 1878.3,507.72L1886.38,489.08C1887.4,486.72 1888.65,484.5 1889.86,482.35C1890.32,481.54 1890.77,480.74 1891.21,479.93L1896.04,471.02C1897.52,468.29 1899.27,465.12 1901.22,462.1L1912,445.44C1913.88,442.53 1915.94,439.79 1917.93,437.14L1929.92,421.18C1931.48,419.1 1933.18,417.16 1934.82,415.28C1935.36,414.66 1935.9,414.05 1936.43,413.43L1949.41,398.34C1950.98,396.51 1952.68,394.83 1954.33,393.19C1955.02,392.5 1955.72,391.81 1956.4,391.12L1970.45,376.76C1971.47,375.7 1972.73,374.37 1974.37,373.89C1975.55,373.54 1976.71,373.4 1977.84,373.26C1978.32,373.2 1978.79,373.14 1979.26,373.07L2006.83,368.58C2027.1,365.28 2047.72,361.98 2067.65,358.79L2079.87,356.83C2101.9,353.3 2125.33,349.59 2153.61,345.16L2162.07,343.84C2163.44,343.63 2164.71,344.56 2164.93,345.92C2165.14,347.28 2164.21,348.56 2162.85,348.78L2154.4,350.1C2126.12,354.53 2102.7,358.24 2080.68,361.76L2068.46,363.72C2048.53,366.91 2027.91,370.21 2007.65,373.51L1980.09,378C1979.56,378.09 1979.02,378.15 1978.47,378.22C1977.51,378.34 1976.59,378.45 1975.82,378.68C1975.43,378.82 1974.53,379.76 1974.1,380.21L1973.69,380.64L1960.01,394.61C1959.31,395.32 1958.6,396.03 1957.89,396.74C1956.31,398.3 1954.69,399.92 1953.24,401.6L1940.26,416.69C1939.72,417.32 1939.17,417.95 1938.62,418.57C1937.04,420.38 1935.4,422.25 1933.95,424.18L1921.96,440.14C1919.93,442.84 1918.01,445.39 1916.23,448.15L1905.45,464.81C1903.59,467.68 1901.9,470.75 1900.46,473.4L1895.63,482.31C1895.18,483.14 1894.71,483.97 1894.25,484.8C1893.1,486.84 1891.92,488.95 1891,491.07L1882.92,509.71C1881.97,511.9 1881.23,514.35 1880.52,516.72C1880.27,517.55 1880.02,518.37 1879.77,519.19L1876.68,529C1875.92,531.41 1875.5,533.93 1875.05,536.61C1874.93,537.35 1874.8,538.08 1874.67,538.82L1872.85,549.03C1872.59,550.24 1871.54,551.09 1870.35,551.09Z" style="fill:rgb(41,252,255);fill-rule:nonzero;"/>
            </g>
            <g>
                <path d="M1869.9,526.95C1869.76,526.95 1869.61,526.94 1869.46,526.91C1868.1,526.67 1867.19,525.37 1867.43,524.01L1869.26,513.67C1869.4,512.88 1869.53,512.08 1869.66,511.29C1870.08,508.73 1870.5,506.08 1871.3,503.53L1874.27,494.02C1874.57,493.07 1874.85,492.09 1875.13,491.11C1875.82,488.71 1876.53,486.22 1877.54,483.9L1885.39,465.65C1887.35,461.08 1889.78,456.73 1892.12,452.51C1892.97,450.98 1893.82,449.45 1894.65,447.91C1895.06,447.15 1895.46,446.39 1895.86,445.62C1897.01,443.42 1898.2,441.15 1899.57,439.02L1904.89,430.75C1905.71,429.47 1906.53,428.18 1907.34,426.89C1909.98,422.71 1912.71,418.4 1915.71,414.38L1927.35,398.8C1930.82,394.15 1934.59,389.76 1938.24,385.51L1947.63,374.54C1947.71,374.45 1947.79,374.33 1947.88,374.2C1948.3,373.61 1948.82,372.89 1949.63,372.43C1950.51,371.93 1951.51,371.86 1952.24,371.81C1952.41,371.8 1952.56,371.79 1952.69,371.77L1955.28,371.35C1959.54,370.66 1963.8,369.98 1968.05,369.29L1973.19,368.46C1985.09,366.55 1996.98,364.63 2008.88,362.73C2031.56,359.11 2054.63,355.48 2076.93,351.98L2080.27,351.45C2107.1,347.23 2130.56,343.57 2151.99,340.26L2160.52,338.94C2161.89,338.72 2163.16,339.67 2163.37,341.03C2163.58,342.4 2162.64,343.67 2161.28,343.88L2152.76,345.2C2131.34,348.51 2107.88,352.17 2081.05,356.38L2077.71,356.91C2055.41,360.42 2032.34,364.04 2009.67,367.66C1997.77,369.56 1985.88,371.47 1973.99,373.39L1968.85,374.22C1964.59,374.9 1960.34,375.59 1956.08,376.28L1953.49,376.7C1953.23,376.74 1952.91,376.77 1952.57,376.79C1952.45,376.8 1952.29,376.81 1952.15,376.82C1952.08,376.92 1952,377.03 1951.94,377.11C1951.76,377.36 1951.59,377.6 1951.43,377.78L1942.03,388.75C1938.44,392.94 1934.72,397.26 1931.35,401.78L1919.71,417.36C1916.83,421.22 1914.15,425.46 1911.56,429.55C1910.74,430.85 1909.91,432.15 1909.09,433.44L1903.77,441.72C1902.52,443.67 1901.38,445.84 1900.28,447.94C1899.87,448.72 1899.46,449.5 1899.04,450.28C1898.2,451.84 1897.34,453.39 1896.47,454.94C1894.19,459.04 1891.83,463.29 1889.96,467.62L1882.11,485.87C1881.23,487.91 1880.56,490.24 1879.92,492.49C1879.63,493.51 1879.34,494.52 1879.03,495.51L1876.06,505.02C1875.37,507.24 1874.98,509.6 1874.58,512.09C1874.45,512.91 1874.31,513.73 1874.17,514.55L1872.34,524.89C1872.14,526.1 1871.09,526.95 1869.9,526.95Z" style="fill:rgb(41,255,255);fill-rule:nonzero;"/>
            </g>
            <g>
                <path d="M1869.45,502.72C1869.31,502.72 1869.16,502.71 1869.01,502.68C1867.65,502.44 1866.74,501.15 1866.98,499.79L1868.7,489.99C1868.86,489.06 1869,488.11 1869.15,487.16C1869.51,484.75 1869.88,482.27 1870.6,479.91L1876.3,461.47C1877.04,459.07 1878.06,456.8 1879.04,454.6C1879.4,453.8 1879.75,453.01 1880.09,452.21L1883.83,443.44C1885.02,440.65 1886.34,437.66 1887.96,434.63L1897.11,417.52C1898.43,415.06 1899.92,412.74 1901.35,410.49L1912.46,393.09C1913.73,391.11 1915.14,389.25 1916.5,387.45C1916.99,386.8 1917.49,386.15 1917.97,385.49L1927.7,372.39C1927.78,372.29 1927.86,372.16 1927.94,372.04C1928.4,371.34 1929.04,370.38 1930.15,369.89C1931.21,369.42 1932.37,369.32 1933.31,369.25C1933.63,369.22 1933.95,369.2 1934.23,369.16L1938.64,368.46C1961.89,364.76 1985.15,361.05 2008.41,357.39C2029.84,354.02 2051.63,350.66 2072.71,347.41L2077.96,346.6C2085.57,345.43 2093.17,344.25 2100.77,343.07C2116.21,340.68 2132.18,338.2 2147.9,335.83L2155.79,334.64C2157.16,334.42 2158.43,335.37 2158.63,336.74C2158.84,338.11 2157.9,339.38 2156.53,339.58L2148.65,340.77C2132.94,343.15 2116.98,345.62 2101.54,348.01C2093.93,349.19 2086.33,350.37 2078.72,351.54L2073.47,352.35C2052.4,355.6 2030.61,358.95 2009.19,362.32C1985.93,365.98 1962.68,369.68 1939.43,373.39L1935.02,374.09C1934.62,374.15 1934.17,374.19 1933.72,374.23C1933.3,374.26 1932.75,374.31 1932.4,374.39C1932.31,374.51 1932.2,374.68 1932.12,374.8C1931.98,375.01 1931.85,375.2 1931.72,375.37L1921.99,388.47C1921.49,389.14 1920.99,389.8 1920.48,390.47C1919.18,392.19 1917.83,393.96 1916.67,395.77L1905.55,413.17C1904.1,415.43 1902.73,417.56 1901.51,419.85L1892.36,436.97C1890.83,439.82 1889.57,442.7 1888.42,445.38L1884.68,454.15C1884.33,454.97 1883.96,455.8 1883.59,456.62C1882.63,458.78 1881.72,460.81 1881.06,462.93L1875.36,481.37C1874.74,483.36 1874.4,485.66 1874.07,487.87C1873.92,488.87 1873.77,489.86 1873.6,490.83L1871.88,500.64C1871.7,501.87 1870.64,502.72 1869.45,502.72Z" style="fill:rgb(41,255,255);fill-rule:nonzero;"/>
            </g>
            <g>
                <path d="M1869,478.39C1868.86,478.39 1868.71,478.38 1868.57,478.35C1867.21,478.11 1866.3,476.82 1866.54,475.46C1866.9,473.41 1867.23,471.36 1867.57,469.3C1868.24,465.2 1868.93,460.95 1869.79,456.81C1870.25,454.58 1870.97,452.42 1871.66,450.33C1871.96,449.44 1872.25,448.55 1872.52,447.67L1875.25,438.76C1876.7,434.02 1878.68,429.48 1880.6,425.09C1881.19,423.74 1881.78,422.38 1882.36,421.03C1882.71,420.2 1883.05,419.34 1883.39,418.49C1884.2,416.46 1885.04,414.36 1886.08,412.4L1890.37,404.33C1891.16,402.85 1891.93,401.35 1892.7,399.86C1894.78,395.83 1896.93,391.66 1899.39,387.79L1911.44,368.81C1912.41,367.28 1913.42,367.01 1914.54,366.83L1941.06,362.65C1961.16,359.49 1982.32,356.19 2007.66,352.25C2027.76,349.13 2048.2,346.03 2067.97,343.04L2141.42,331.91C2143.24,331.63 2145.06,331.36 2146.88,331.09L2148.55,330.84C2149.91,330.63 2151.19,331.58 2151.39,332.95C2151.59,334.32 2150.65,335.59 2149.28,335.79L2147.61,336.04C2145.79,336.31 2143.98,336.58 2142.16,336.85L2068.71,347.98C2048.95,350.98 2028.51,354.07 2008.42,357.19C1983.09,361.12 1961.93,364.42 1941.83,367.58L1915.5,371.73L1903.61,390.46C1901.27,394.15 1899.17,398.21 1897.15,402.15C1896.37,403.67 1895.59,405.18 1894.79,406.68L1890.5,414.76C1889.58,416.49 1888.8,418.46 1888.04,420.36C1887.69,421.25 1887.33,422.13 1886.97,423C1886.39,424.37 1885.79,425.74 1885.19,427.11C1883.33,431.37 1881.41,435.77 1880.04,440.24L1877.31,449.15C1877.03,450.07 1876.72,451 1876.41,451.93C1875.76,453.88 1875.09,455.9 1874.69,457.85C1873.86,461.89 1873.17,466.08 1872.51,470.14C1872.17,472.21 1871.83,474.29 1871.47,476.35C1871.25,477.54 1870.2,478.39 1869,478.39Z" style="fill:rgb(41,255,255);fill-rule:nonzero;"/>
            </g>
            <g>
                <path d="M1868.55,453.97C1868.41,453.97 1868.27,453.96 1868.12,453.93C1866.76,453.69 1865.85,452.4 1866.08,451.04L1869.1,433.52C1869.52,431.06 1870.27,428.72 1870.98,426.47C1871.19,425.82 1871.39,425.17 1871.59,424.53L1874.09,416.31C1874.98,413.39 1875.87,410.44 1877.08,407.58L1883.81,391.56C1884.85,389.09 1886.03,386.61 1887.54,383.75L1897.07,365.67C1897.51,364.83 1897.9,364.36 1898.92,363.94C1899.7,363.62 1900.41,363.56 1900.99,363.51C1901.14,363.5 1901.28,363.49 1901.41,363.47L1911.15,361.95C1918.99,360.73 1926.83,359.51 1934.68,358.29L1942.6,357.06C1959.43,354.45 1976.27,351.87 1993.1,349.3L2005.66,347.38C2025.72,344.31 2046.12,341.27 2065.84,338.32L2068.73,337.89C2074.92,336.97 2081.12,336.04 2087.31,335.11C2101.89,332.93 2116.96,330.67 2131.79,328.49L2139.1,327.42C2140.46,327.22 2141.74,328.17 2141.93,329.53C2142.13,330.9 2141.18,332.16 2139.82,332.37L2132.51,333.44C2117.69,335.61 2102.62,337.87 2088.05,340.05C2081.85,340.98 2075.66,341.91 2069.46,342.83L2066.57,343.26C2046.85,346.2 2026.45,349.25 2006.41,352.32L1993.85,354.24C1977.02,356.81 1960.19,359.39 1943.36,362L1935.44,363.23C1927.6,364.45 1919.76,365.66 1911.92,366.89L1902.18,368.41C1901.95,368.45 1901.69,368.47 1901.42,368.5C1901.36,368.5 1901.3,368.51 1901.23,368.52L1891.96,386.1C1890.52,388.83 1889.39,391.19 1888.42,393.52L1881.69,409.54C1880.59,412.16 1879.77,414.86 1878.9,417.71L1876.38,426C1876.18,426.67 1875.97,427.33 1875.75,428C1875.05,430.19 1874.4,432.27 1874.03,434.39L1871.01,451.91C1870.81,453.11 1869.75,453.97 1868.55,453.97Z" style="fill:rgb(43,255,255);fill-rule:nonzero;"/>
            </g>
            <g>
                <path d="M1868.11,429.44C1867.97,429.44 1867.83,429.43 1867.69,429.4C1866.33,429.17 1865.41,427.88 1865.65,426.51L1868.44,410.22C1869.19,405.81 1870.53,401.57 1871.82,397.47C1872.2,396.27 1872.58,395.07 1872.94,393.87C1873.2,393 1873.46,392.12 1873.72,391.25C1874.23,389.5 1874.77,387.7 1875.34,385.93C1875.96,384.03 1876.76,382.21 1877.53,380.45C1877.86,379.7 1878.19,378.96 1878.5,378.21C1879.19,376.55 1879.87,374.89 1880.55,373.23C1881.9,369.92 1883.3,366.5 1884.77,363.17L1884.85,362.97C1885.13,362.3 1885.55,361.3 1886.47,360.69C1887.32,360.12 1888.29,360.08 1888.94,360.05C1889.04,360.05 1889.13,360.04 1889.21,360.03L1900.2,358.34C1905.09,357.59 1909.98,356.83 1914.86,356.08L1924.56,354.59C1931.07,353.59 1937.59,352.59 1944.1,351.6C1957.03,349.64 1969.96,347.69 1982.89,345.75L2002.99,342.73C2022.13,339.85 2040.99,337.06 2061.91,333.99L2075.09,332.05C2090.28,329.81 2105.47,327.58 2120.66,325.38L2127.71,324.36C2129.08,324.17 2130.34,325.11 2130.54,326.48C2130.74,327.85 2129.79,329.11 2128.42,329.31L2121.37,330.33C2106.18,332.52 2090.99,334.76 2075.81,337L2062.63,338.94C2041.72,342.01 2022.86,344.79 2003.73,347.68L1983.63,350.71C1970.7,352.65 1957.77,354.6 1944.84,356.56C1938.33,357.55 1931.82,358.55 1925.31,359.55L1915.61,361.04C1910.72,361.79 1905.84,362.54 1900.95,363.29L1889.95,364.99C1889.8,365.01 1889.61,365.03 1889.41,365.04L1889.34,365.21C1887.9,368.47 1886.51,371.86 1885.17,375.14C1884.49,376.81 1883.8,378.49 1883.11,380.15C1882.79,380.93 1882.44,381.7 1882.1,382.48C1881.34,384.2 1880.63,385.82 1880.09,387.48C1879.54,389.19 1879.02,390.96 1878.51,392.67C1878.25,393.55 1877.99,394.44 1877.72,395.32C1877.35,396.54 1876.97,397.76 1876.58,398.98C1875.34,402.92 1874.06,407 1873.36,411.07L1870.57,427.36C1870.36,428.58 1869.3,429.44 1868.11,429.44Z" style="fill:rgb(43,255,255);fill-rule:nonzero;"/>
            </g>
            <g>
                <path d="M1867.66,404.82C1867.52,404.82 1867.38,404.81 1867.24,404.78C1865.88,404.55 1864.96,403.26 1865.19,401.9L1867.77,386.7C1868.18,384.29 1868.67,381.69 1869.47,379.02L1874.83,361.1C1875.05,360.37 1875.32,359.72 1875.55,359.15L1875.6,359.02C1875.69,358.76 1875.82,358.41 1876.04,358.05C1876.8,356.83 1877.7,356.55 1878.55,356.44L1878.7,356.42L1891.98,354.4C1913.1,351.19 1930.24,348.61 1945.9,346.28L1999.98,338.25C2019.74,335.32 2039.33,332.47 2054.2,330.32L2057.65,329.82C2074.44,327.39 2091.23,324.96 2108.03,322.57L2114.35,321.67C2115.72,321.49 2116.98,322.43 2117.18,323.8C2117.37,325.17 2116.42,326.43 2115.05,326.63L2108.73,327.53C2091.94,329.92 2075.15,332.35 2058.36,334.78L2054.91,335.28C2040.05,337.43 2020.46,340.27 2000.71,343.21L1946.63,351.24C1930.97,353.57 1913.85,356.14 1892.73,359.36L1880.09,361.28C1879.92,361.7 1879.75,362.13 1879.62,362.55L1874.26,380.47C1873.54,382.88 1873.09,385.3 1872.7,387.55L1870.12,402.75C1869.92,403.96 1868.86,404.82 1867.66,404.82Z" style="fill:rgb(43,255,255);fill-rule:nonzero;"/>
            </g>
            <g>
                <path d="M1867.21,380.1C1867.07,380.1 1866.93,380.09 1866.79,380.06C1865.43,379.83 1864.51,378.54 1864.74,377.18L1867.03,363.61C1867.14,362.95 1867.24,362.29 1867.33,361.62C1867.57,359.98 1867.82,358.28 1868.26,356.62C1868.36,356.24 1868.48,355.86 1868.59,355.48L1868.78,354.83C1869.05,353.88 1869.51,352.94 1871.07,352.46C1871.87,352.21 1872.65,352.13 1873.35,352.06C1873.61,352.03 1873.87,352.01 1874.11,351.97C1882.05,350.78 1889.98,349.59 1897.92,348.4C1914.16,345.98 1930.4,343.6 1946.64,341.22L1995.68,334.05C2011.75,331.7 2028.22,329.32 2044.64,326.98L2047.96,326.51C2063,324.37 2078.04,322.22 2093.09,320.12L2098.97,319.3C2100.34,319.1 2101.6,320.06 2101.79,321.43C2101.98,322.8 2101.03,324.06 2099.66,324.25L2093.78,325.07C2078.74,327.18 2063.7,329.32 2048.66,331.46L2045.34,331.93C2028.93,334.27 2012.46,336.65 1996.4,338.99L1947.36,346.16C1931.12,348.54 1914.88,350.92 1898.65,353.34C1890.72,354.52 1882.78,355.71 1874.85,356.91C1874.53,356.96 1874.19,356.99 1873.85,357.03C1873.67,357.05 1873.5,357.07 1873.32,357.09C1873.24,357.37 1873.15,357.64 1873.08,357.92C1872.71,359.29 1872.49,360.77 1872.27,362.34C1872.17,363.05 1872.06,363.75 1871.95,364.44L1869.66,378.01C1869.47,379.24 1868.41,380.1 1867.21,380.1Z" style="fill:rgb(43,255,255);fill-rule:nonzero;"/>
            </g>
            <g>
                <path d="M1866.77,355.29C1866.63,355.29 1866.49,355.28 1866.35,355.26C1864.99,355.03 1864.07,353.74 1864.3,352.38C1864.32,352.28 1864.33,352.14 1864.34,351.99C1864.45,350.85 1864.57,349.56 1865.52,348.68C1866.31,347.94 1867.32,347.89 1867.98,347.86L1868.13,347.85L1890.1,344.6C1895.6,343.79 1901.09,342.97 1906.59,342.18L1991.96,329.89C2007.79,327.61 2021.1,325.71 2034.63,323.81C2048.64,321.85 2062.64,319.88 2076.65,317.95L2081.35,317.3C2082.73,317.11 2083.98,318.07 2084.17,319.43C2084.36,320.8 2083.4,322.06 2082.04,322.25L2077.34,322.9C2063.33,324.84 2049.33,326.8 2035.32,328.76C2021.8,330.66 2008.49,332.56 1992.67,334.84L1907.3,347.13C1901.81,347.92 1896.32,348.73 1890.83,349.54L1869.29,352.72C1869.27,352.91 1869.25,353.07 1869.23,353.2C1869.03,354.42 1867.97,355.29 1866.77,355.29Z" style="fill:rgb(43,255,255);fill-rule:nonzero;"/>
            </g>
            <g>
                <path d="M1866.02,348.25C1864.8,348.25 1863.73,347.35 1863.55,346.11C1863.35,344.74 1864.3,343.48 1865.66,343.28C1889.29,339.84 1913.31,336.44 1936.55,333.14L1941.62,332.42C1949.92,331.25 1958.21,330.06 1966.51,328.88C1983.56,326.45 2001.19,323.93 2018.53,321.54L2020.14,321.32C2033.74,319.44 2047.34,317.57 2060.94,315.72C2062.31,315.53 2063.57,316.49 2063.75,317.86C2063.94,319.23 2062.98,320.49 2061.61,320.68C2048.01,322.53 2034.41,324.41 2020.82,326.28L2019.21,326.5C2001.87,328.89 1984.25,331.41 1967.21,333.84C1958.91,335.02 1950.61,336.21 1942.31,337.38L1937.24,338.1C1914.01,341.39 1889.98,344.79 1866.37,348.23C1866.26,348.24 1866.14,348.25 1866.02,348.25Z" style="fill:rgb(43,255,255);fill-rule:nonzero;"/>
            </g>
            <g>
                <path d="M1869.5,342.94C1868.28,342.94 1867.21,342.04 1867.03,340.79C1866.83,339.42 1867.78,338.16 1869.15,337.96C1885.43,335.63 1901.99,333.33 1918,331.11L2000.51,319.62C2011.99,318.02 2023.91,316.39 2036.97,314.63C2038.34,314.45 2039.6,315.41 2039.78,316.77C2039.96,318.14 2039,319.4 2037.64,319.58C2024.59,321.34 2012.67,322.97 2001.2,324.57L1918.69,336.06C1902.68,338.28 1886.13,340.58 1869.86,342.91C1869.73,342.93 1869.61,342.94 1869.5,342.94Z" style="fill:rgb(43,255,255);fill-rule:nonzero;"/>
            </g>
            <g>
                <path d="M1879.52,336.85C1878.29,336.85 1877.22,335.95 1877.05,334.7C1876.86,333.33 1877.81,332.07 1879.18,331.88C1897.6,329.31 1913.79,327.07 1928.69,325.04L1987.41,317.04C1993.74,316.17 2000.08,315.31 2006.42,314.46C2007.79,314.28 2009.05,315.24 2009.23,316.61C2009.41,317.98 2008.45,319.24 2007.08,319.42C2000.75,320.26 1994.42,321.13 1988.09,322L1929.36,330C1914.47,332.03 1898.28,334.26 1879.87,336.83C1879.75,336.84 1879.63,336.85 1879.52,336.85Z" style="fill:rgb(43,255,255);fill-rule:nonzero;"/>
            </g>
            <g>
                <path d="M1908.84,328.29C1907.61,328.29 1906.54,327.38 1906.37,326.13C1906.18,324.76 1907.14,323.5 1908.51,323.32C1921.24,321.59 1933.97,319.88 1946.7,318.17L1957.53,316.72C1958.9,316.52 1960.16,317.5 1960.34,318.87C1960.52,320.24 1959.56,321.5 1958.19,321.68L1947.37,323.13C1934.64,324.84 1921.91,326.55 1909.19,328.28C1909.07,328.29 1908.95,328.29 1908.84,328.29Z" style="fill:rgb(44,255,255);fill-rule:nonzero;"/>
            </g>
        </g>
    </g>
</svg>
